<svg width="680" height="1070" viewBox="0 0 680 1070" fill="none" xmlns="http://www.w3.org/2000/svg">
<path fill-rule="evenodd" clip-rule="evenodd" d="M240.605 63.2604C240.605 69.5357 237.887 75.1759 233.563 79.0675L234.587 78.6946L249.786 120.452C263.518 116.101 278.142 113.754 293.313 113.754C332.825 113.754 368.619 129.673 394.631 155.447L426.214 125.27L426.898 125.986C426.152 123.818 425.747 121.491 425.747 119.069C425.747 107.327 435.266 97.8086 447.008 97.8086C458.75 97.8086 468.268 107.327 468.268 119.069C468.268 130.811 458.75 140.329 447.008 140.329C444.233 140.329 441.582 139.798 439.151 138.831L407.071 169.483C425.996 193.851 437.264 224.462 437.264 257.705C437.264 333.692 378.388 395.927 303.766 401.282C295.523 424.389 303.979 454.714 314.087 490.964C317.695 503.902 321.513 517.595 324.858 531.984C336.641 528.327 350.909 520.717 369.272 508.554C366.433 500.457 367.021 490.181 372.283 478.772C377.601 463.53 386.529 455.051 385.922 476.676C385.918 476.822 385.786 476.941 385.641 476.958C383.099 477.254 382.045 486.034 384.962 487.177C385.052 487.212 385.156 487.179 385.22 487.106C415.425 452.952 425.149 448.821 401.78 492.243C401.269 493.194 402.445 494.199 403.317 493.562C435.438 470.11 443.358 478.041 409.309 508.269C408.979 508.562 409.131 509.12 409.571 509.14C417.184 509.498 434.468 508.179 425.393 504.07C425.173 503.971 425.204 503.633 425.438 503.575C454.173 496.497 448.56 513.708 411.413 524.768C397.814 528.817 385.914 526.822 377.959 520.664C358.216 536.111 342.3 546.541 329.321 553.456C333.538 576.773 335.819 601.691 333.621 627.99C330.251 668.312 310.134 695.362 282.674 710.764C331.193 752.143 326.681 775.691 315.753 832.712C311.109 856.944 305.306 887.221 301.923 927.48L255.847 934.454C285.046 809.711 294.55 753.851 249.543 723.183C214.081 731.013 173.77 724.947 141.882 707.279C151.419 733.036 132.537 760.835 103.569 803.484C85.4822 830.112 63.464 862.528 41.9761 903.85L0 883.631C86.5199 768.09 115.156 714.72 104.513 675.755C86.7361 652.542 79.0476 622.004 89.1265 585.469C109.542 541.058 137.46 509.349 162.898 480.457C190.439 449.177 215.073 421.198 224.134 383.973C179.57 359.506 149.363 312.133 149.363 257.705C149.363 200.004 183.311 150.233 232.324 127.275L216.976 85.1048L218.614 84.5085C207.211 84.1232 198.084 74.7576 198.084 63.2604C198.084 51.5186 207.603 42 219.345 42C231.087 42 240.605 51.5186 240.605 63.2604Z" fill="#1D6234"/>
<path fill-rule="evenodd" clip-rule="evenodd" d="M398.028 44.4415C403.212 39.7757 406.471 33.0135 406.471 25.49C406.471 11.4123 395.059 0 380.982 0C366.904 0 355.492 11.4123 355.492 25.49C355.492 39.2742 366.433 50.503 380.105 50.9652L378.141 51.6799L396.543 102.239C337.779 129.765 297.077 189.438 297.077 258.617C297.077 323.874 333.294 380.671 386.724 410.006C375.86 454.636 346.325 488.181 313.305 525.685C282.807 560.325 249.335 598.342 224.857 651.588C212.773 695.391 221.992 732.004 243.305 759.836C256.065 806.552 221.732 870.54 118 1009.07L168.327 1033.31C194.09 983.765 220.488 944.899 242.173 912.974C276.904 861.841 299.542 828.511 288.108 797.631C326.341 818.814 374.671 826.086 417.188 816.699C471.149 853.468 459.753 920.44 424.745 1070L479.988 1061.64C484.044 1013.37 491.001 977.07 496.569 948.017C509.671 879.653 515.082 851.42 456.91 801.809C489.833 783.342 513.952 750.912 517.992 702.568C521.284 663.18 516.196 626.376 508.672 592.67C524.531 580.594 543.279 563.71 565.633 540.236C574.965 541.925 585.854 540.411 597.213 535.035C641.652 514.006 645.296 491.342 610.495 505.893C610.273 505.986 610.302 506.328 610.535 506.39C623.228 509.824 601.073 514.92 591.59 515.865C591.152 515.908 590.92 515.377 591.201 515.038C628.544 470.072 616.631 461.806 580.181 498.435C579.419 499.2 578.125 498.355 578.488 497.337C599.935 437.244 588.607 444.078 557.161 492.982C557.109 493.064 557.011 493.112 556.916 493.093C552.978 492.288 552.617 480.86 555.828 480.148C555.971 480.116 556.083 479.978 556.065 479.832C552.67 452.556 543.115 464.89 539.391 485.006C534.034 503.664 537.064 518.871 545.275 528.685C528.15 543.639 513.689 554.365 500.929 561.403C498.813 553.49 496.663 545.78 494.572 538.281C482.453 494.821 472.315 458.462 482.197 430.758C571.665 424.338 642.254 349.721 642.254 258.617C642.254 218.761 628.744 182.06 606.054 152.845L644.517 116.094C647.431 117.254 650.609 117.891 653.937 117.891C668.014 117.891 679.427 106.479 679.427 92.4013C679.427 78.3235 668.014 66.9113 653.937 66.9113C639.859 66.9113 628.447 78.3235 628.447 92.4013C628.447 95.3046 628.932 98.0946 629.826 100.695L629.006 99.8357L591.139 136.016C559.952 105.115 517.038 86.0288 469.665 86.0288C451.475 86.0288 433.942 88.8428 417.478 94.0594L399.256 43.9945L398.028 44.4415Z" fill="#278547"/>
</svg>
