<svg width="75" height="76" viewBox="0 0 75 76" fill="none" xmlns="http://www.w3.org/2000/svg">
<circle cx="37.5" cy="38" r="35.25" fill="url(#paint0_radial_668_2)" stroke="#B89437" stroke-width="4.5"/>
<path d="M36.0734 15.3906C36.5224 14.0086 38.4776 14.0086 38.9266 15.3906L43.2251 28.6201C43.4259 29.2381 44.0019 29.6565 44.6517 29.6565H58.562C60.0151 29.6565 60.6193 31.516 59.4437 32.3701L48.19 40.5463C47.6643 40.9283 47.4443 41.6054 47.6451 42.2234L51.9436 55.4529C52.3926 56.8349 50.8109 57.984 49.6354 57.1299L38.3817 48.9537C37.8559 48.5717 37.1441 48.5717 36.6183 48.9537L25.3646 57.1299C24.1891 57.984 22.6074 56.8349 23.0564 55.4529L27.3549 42.2234C27.5557 41.6054 27.3357 40.9283 26.81 40.5463L15.5563 32.3701C14.3808 31.516 14.9849 29.6565 16.438 29.6565H30.3483C30.9981 29.6565 31.5741 29.2381 31.7749 28.6201L36.0734 15.3906Z" fill="white"/>
<defs>
<radialGradient id="paint0_radial_668_2" cx="0" cy="0" r="1" gradientUnits="userSpaceOnUse" gradientTransform="translate(37.5 38) rotate(90) scale(37.5)">
<stop offset="0.302083" stop-color="#FFCC2F"/>
<stop offset="0.817708"/>
</radialGradient>
</defs>
</svg>
