<svg width="75" height="76" viewBox="0 0 75 76" fill="none" xmlns="http://www.w3.org/2000/svg">
<circle cx="37.5" cy="38" r="35.25" fill="url(#paint0_radial_668_5)" stroke="#B85F37" stroke-width="4.5"/>
<path d="M51.6877 33.3333C51.0779 33.3333 50.4931 33.0875 50.062 32.6499C49.6308 32.2123 49.3886 31.6188 49.3886 31C49.3886 30.3812 49.6308 29.7877 50.062 29.3501C50.4931 28.9125 51.0779 28.6667 51.6877 28.6667C52.2975 28.6667 52.8822 28.9125 53.3134 29.3501C53.7446 29.7877 53.9868 30.3812 53.9868 31C53.9868 31.6188 53.7446 32.2123 53.3134 32.6499C52.8822 33.0875 52.2975 33.3333 51.6877 33.3333ZM37.893 33.3333H24.0982V21.6667H37.893M55.7571 26.87L55.7801 26.8467L47.2274 18.1667L44.7903 20.64L49.6415 25.5633C47.4803 26.3333 45.9399 28.5033 45.9399 31C45.9399 31.766 46.0886 32.5246 46.3774 33.2323C46.6663 33.9401 47.0896 34.5831 47.6234 35.1248C48.7013 36.2188 50.1633 36.8333 51.6877 36.8333C52.5154 36.8333 53.2741 36.6467 53.9868 36.3433V53.1667C53.9868 53.7855 53.7446 54.379 53.3134 54.8166C52.8822 55.2542 52.2975 55.5 51.6877 55.5C51.0779 55.5 50.4931 55.2542 50.062 54.8166C49.6308 54.379 49.3886 53.7855 49.3886 53.1667V42.6667C49.3886 41.429 48.9041 40.242 48.0418 39.3668C47.1794 38.4917 46.0099 38 44.7903 38H42.4912V21.6667C42.4912 20.429 42.0067 19.242 41.1444 18.3668C40.2821 17.4917 39.1125 17 37.893 17H24.0982C21.5462 17 19.5 19.0767 19.5 21.6667V59H42.4912V41.5H45.9399V53.1667C45.9399 54.7138 46.5455 56.1975 47.6234 57.2915C48.7013 58.3854 50.1633 59 51.6877 59C52.4425 59 53.1899 58.8491 53.8873 58.556C54.5846 58.2628 55.2183 57.8331 55.752 57.2915C56.2857 56.7498 56.7091 56.1067 56.998 55.399C57.2868 54.6913 57.4355 53.9327 57.4355 53.1667V31C57.4355 29.39 56.7917 27.92 55.7571 26.87Z" fill="white"/>
<defs>
<radialGradient id="paint0_radial_668_5" cx="0" cy="0" r="1" gradientUnits="userSpaceOnUse" gradientTransform="translate(37.5 38) rotate(90) scale(37.5)">
<stop offset="0.359375" stop-color="#E68B4E"/>
<stop offset="0.838542"/>
</radialGradient>
</defs>
</svg>
