<svg width="132" height="132" viewBox="0 0 132 132" fill="none" xmlns="http://www.w3.org/2000/svg">
<g filter="url(#filter0_f_599_286)">
<rect x="6" y="6" width="120" height="120" rx="30" fill="#160B2D"/>
<rect x="4" y="4" width="124" height="124" rx="32" stroke="white" stroke-width="4"/>
</g>
<g filter="url(#filter1_f_599_286)">
<path d="M68.9386 113.947C65.7641 75.9555 134.381 28.5202 99.5047 35.0226C57.9726 42.7659 112.574 15.6522 67.2771 30.7143C8.04155 50.411 33.41 78.1678 75.6789 65.6898C105.731 56.8182 153.298 83.2427 44.553 90.3694C21.0828 91.9075 16.7387 67.5972 19.3981 55.8372" stroke="white" stroke-opacity="0.6" stroke-width="1.5" stroke-linejoin="round"/>
</g>
<path d="M68.9386 113.947C65.7641 75.9555 134.381 28.5202 99.5047 35.0226C57.9726 42.7659 112.574 15.6522 67.2771 30.7143C8.04155 50.411 33.41 78.1678 75.6789 65.6898C105.731 56.8182 153.298 83.2427 44.553 90.3694C21.0828 91.9075 16.7387 67.5972 19.3981 55.8372" stroke="#67FF88" stroke-width="1.875" stroke-linejoin="round" stroke-dasharray="5 5"/>
<path d="M23.4422 46.2978L20.3671 51.4547C19.9845 52.0963 19.0591 52.1071 18.6616 51.4746L17.5195 49.6574L15.619 46.2978C14.9601 45.1774 14.4213 44.3973 14.1061 43.466C13.893 42.3932 14.0026 41.2814 14.4213 40.2709C14.84 39.2605 15.5488 38.3969 16.4583 37.7893C17.3677 37.1817 18.4369 36.8574 19.5306 36.8574C20.6244 36.8574 21.6935 37.1817 22.603 37.7893C23.5124 38.3969 24.2213 39.2605 24.64 40.2709C25.0586 41.2814 25.1683 42.3932 24.9551 43.466C24.64 44.3973 24.24 44.8574 23.4422 46.2978ZM19.5306 44.3973C20.064 44.3973 20.5755 44.1854 20.9527 43.8082C21.3299 43.4311 21.5417 42.9195 21.5417 42.3862C21.5417 41.8528 21.3299 41.3412 20.9527 40.9641C20.5755 40.5869 20.064 40.375 19.5306 40.375C18.9972 40.375 18.4857 40.5869 18.1086 40.9641C17.7314 41.3412 17.5195 41.8528 17.5195 42.3862C17.5195 42.9195 17.7314 43.4311 18.1086 43.8082C18.4857 44.1854 18.9972 44.3973 19.5306 44.3973Z" fill="#37B85B"/>
<circle cx="44.2856" cy="75.1426" r="4" fill="#914EE6"/>
<circle cx="48.8571" cy="21.4284" r="2.85714" fill="#EE7F4F"/>
<circle cx="42.5714" cy="55.143" r="5.71429" fill="#D9D9D9"/>
<circle cx="69.4285" cy="46.5714" r="8.57143" fill="#FFADAD"/>
<circle cx="100.857" cy="19.714" r="4.57143" fill="#FFCC2F"/>
<g filter="url(#filter2_f_599_286)">
<ellipse cx="70.1257" cy="106.017" rx="6.98413" ry="12.5714" transform="rotate(12.9936 70.1257 106.017)" fill="white"/>
</g>
<path d="M72.6863 95.3559C72.6643 95.3328 72.6362 95.3165 72.6052 95.3089C72.5743 95.3012 72.5418 95.3026 72.5116 95.3127C70.4909 95.9797 67.3954 100.038 66.5721 103.603C66.4233 104.236 66.33 104.88 66.2933 105.529C65.5792 105.893 64.9338 106.365 64.5142 106.977C63.3347 108.71 64.0289 110.875 64.3993 111.761C64.4194 111.81 64.4504 111.854 64.49 111.888C64.5296 111.923 64.5767 111.948 64.6276 111.961C64.6785 111.975 64.7319 111.976 64.7834 111.965C64.8349 111.954 64.8832 111.932 64.9246 111.899L67.3574 109.978C67.4824 110.174 67.6172 110.363 67.7615 110.545C67.8596 110.673 67.9994 110.762 68.1565 110.798L69.7993 111.175C69.956 111.212 70.1208 111.193 70.265 111.121C70.4733 111.021 70.6764 110.911 70.8735 110.79L72.2179 113.579C72.2409 113.626 72.2744 113.668 72.3161 113.7C72.3577 113.732 72.4062 113.754 72.4578 113.764C72.5094 113.775 72.5626 113.773 72.6134 113.759C72.6642 113.745 72.7111 113.72 72.7504 113.685C73.4723 113.055 75.0482 111.411 74.7431 109.339C74.6341 108.605 74.2647 107.9 73.7858 107.263C74.0381 106.662 74.2378 106.041 74.3823 105.407C75.2146 101.841 74.2582 96.932 72.6863 95.3559ZM70.5533 104.167C70.2268 104.091 69.9299 103.921 69.7002 103.677C69.4706 103.433 69.3184 103.126 69.263 102.796C69.2076 102.465 69.2515 102.126 69.389 101.82C69.5266 101.515 69.7517 101.257 70.0358 101.079C70.32 100.902 70.6504 100.812 70.9854 100.823C71.3203 100.833 71.6447 100.942 71.9175 101.137C72.1903 101.331 72.3992 101.602 72.5179 101.916C72.6366 102.229 72.6596 102.571 72.5842 102.897C72.5343 103.114 72.4422 103.319 72.3131 103.5C72.1841 103.681 72.0205 103.835 71.8319 103.953C71.6433 104.071 71.4333 104.15 71.2139 104.187C70.9945 104.224 70.77 104.217 70.5533 104.167Z" fill="#BE2819"/>
<path d="M70.1874 111.949C70.1261 112.216 69.9031 112.444 69.6207 112.697C68.9851 113.263 67.9727 113.041 67.651 112.242C67.5294 111.938 67.4348 111.466 67.4685 111.32C67.4761 111.289 67.4735 111.256 67.4612 111.226C67.4489 111.196 67.4275 111.17 67.4 111.153C67.3725 111.136 67.3403 111.128 67.3079 111.13C67.2756 111.132 67.2448 111.145 67.2199 111.166C66.8525 111.463 66.5951 111.875 66.4888 112.335C66.2253 113.479 67.792 116.133 67.792 116.133C67.792 116.133 70.3649 114.433 70.6284 113.289C70.7355 112.828 70.6845 112.345 70.4833 111.916C70.4162 111.784 70.2173 111.805 70.1874 111.949Z" fill="#BE2819"/>
<defs>
<filter id="filter0_f_599_286" x="0" y="0" width="132" height="132" filterUnits="userSpaceOnUse" color-interpolation-filters="sRGB">
<feFlood flood-opacity="0" result="BackgroundImageFix"/>
<feBlend mode="normal" in="SourceGraphic" in2="BackgroundImageFix" result="shape"/>
<feGaussianBlur stdDeviation="1" result="effect1_foregroundBlur_599_286"/>
</filter>
<filter id="filter1_f_599_286" x="13.9582" y="21.3252" width="103.136" height="96.6846" filterUnits="userSpaceOnUse" color-interpolation-filters="sRGB">
<feFlood flood-opacity="0" result="BackgroundImageFix"/>
<feBlend mode="normal" in="SourceGraphic" in2="BackgroundImageFix" result="shape"/>
<feGaussianBlur stdDeviation="2" result="effect1_foregroundBlur_599_286"/>
</filter>
<filter id="filter2_f_599_286" x="61.7548" y="92.666" width="16.7418" height="26.7021" filterUnits="userSpaceOnUse" color-interpolation-filters="sRGB">
<feFlood flood-opacity="0" result="BackgroundImageFix"/>
<feBlend mode="normal" in="SourceGraphic" in2="BackgroundImageFix" result="shape"/>
<feGaussianBlur stdDeviation="0.5" result="effect1_foregroundBlur_599_286"/>
</filter>
</defs>
</svg>
