<svg width="132" height="132" viewBox="0 0 132 132" fill="none" xmlns="http://www.w3.org/2000/svg">
<g filter="url(#filter0_f_599_190)">
<rect x="6" y="6" width="120" height="120" rx="30" fill="#160B2D"/>
<rect x="4" y="4" width="124" height="124" rx="32" stroke="white" stroke-width="4"/>
</g>
<g filter="url(#filter1_f_599_190)">
<path d="M68.9385 113.947C65.7641 75.9555 134.38 28.5202 99.5046 35.0226C57.9725 42.7659 112.574 15.6522 67.277 30.7143C8.04149 50.411 33.4099 78.1678 75.6788 65.6898C105.731 56.8182 153.298 83.2427 44.553 90.3694C21.0827 91.9075 16.7386 67.5972 19.398 55.8372" stroke="white" stroke-opacity="0.6" stroke-width="1.5" stroke-linejoin="round"/>
</g>
<g filter="url(#filter2_f_599_190)">
<path d="M24.5642 47.1772L22.1154 51.199C21.0063 53.0206 18.3726 53.0517 17.2208 51.2567L14.8645 47.1772C14.0474 45.8167 13.3795 44.8694 12.9887 43.7386C12.7244 42.4359 12.8604 41.0858 13.3795 39.8588C13.8986 38.6319 14.7775 37.5832 15.905 36.8454C17.0326 36.1077 18.3582 35.7139 19.7143 35.7139C21.0704 35.7139 22.396 36.1077 23.5236 36.8454C24.6512 37.5832 25.5301 38.6319 26.0492 39.8588C26.5683 41.0858 26.7043 42.4359 26.4399 43.7386C26.0492 44.8694 25.5534 45.4282 24.5642 47.1772ZM19.7143 44.8694C20.3756 44.8694 21.0099 44.6121 21.4775 44.1541C21.9451 43.6962 22.2078 43.075 22.2078 42.4273C22.2078 41.7797 21.9451 41.1585 21.4775 40.7005C21.0099 40.2425 20.3756 39.9853 19.7143 39.9853C19.053 39.9853 18.4188 40.2425 17.9511 40.7005C17.4835 41.1585 17.2208 41.7797 17.2208 42.4273C17.2208 43.075 17.4835 43.6962 17.9511 44.1541C18.4188 44.6121 19.053 44.8694 19.7143 44.8694Z" fill="#37B85B" fill-opacity="0.9"/>
</g>
<path d="M23.4422 46.2978L20.3671 51.4547C19.9845 52.0963 19.059 52.1071 18.6615 51.4746L17.5195 49.6574L15.6189 46.2978C14.96 45.1774 14.4212 44.3973 14.1061 43.466C13.8929 42.3932 14.0026 41.2814 14.4212 40.2709C14.8399 39.2605 15.5488 38.3969 16.4582 37.7893C17.3677 37.1817 18.4368 36.8574 19.5306 36.8574C20.6243 36.8574 21.6935 37.1817 22.6029 37.7893C23.5124 38.3969 24.2212 39.2605 24.6399 40.2709C25.0586 41.2814 25.1682 42.3932 24.9551 43.466C24.6399 44.3973 24.24 44.8574 23.4422 46.2978ZM19.5306 44.3973C20.0639 44.3973 20.5755 44.1854 20.9526 43.8082C21.3298 43.4311 21.5417 42.9195 21.5417 42.3862C21.5417 41.8528 21.3298 41.3412 20.9526 40.9641C20.5755 40.5869 20.0639 40.375 19.5306 40.375C18.9972 40.375 18.4857 40.5869 18.1085 40.9641C17.7313 41.3412 17.5195 41.8528 17.5195 42.3862C17.5195 42.9195 17.7313 43.4311 18.1085 43.8082C18.4857 44.1854 18.9972 44.3973 19.5306 44.3973Z" fill="#37B85B"/>
<circle cx="44.2858" cy="75.1426" r="4" fill="#914EE6" fill-opacity="0.6"/>
<circle cx="48.8571" cy="21.4284" r="2.85714" fill="#E68B4E" fill-opacity="0.6"/>
<circle cx="42.5715" cy="55.143" r="5.71429" fill="#D9D9D9"/>
<circle cx="68.2858" cy="46.5714" r="8.57143" fill="#FFADAD" fill-opacity="0.6"/>
<circle cx="100.857" cy="19.714" r="4.57143" fill="#FFCC2F" fill-opacity="0.6"/>
<g filter="url(#filter3_f_599_190)">
<ellipse cx="21.1974" cy="68.0871" rx="6.98413" ry="12.5714" transform="rotate(-8.50957 21.1974 68.0871)" fill="white"/>
</g>
<path d="M19.6719 57.2295C19.6429 57.2162 19.6108 57.2113 19.5792 57.2155C19.5476 57.2198 19.5179 57.2329 19.4935 57.2534C17.858 58.6147 16.4656 63.5254 17.0062 67.1439C17.18 68.338 16.8305 69.5452 16.4312 70.6839C16.3903 70.8004 16.3558 70.9183 16.3284 71.0375C15.8663 73.0824 17.3057 74.842 17.9752 75.5309C18.0117 75.5688 18.0565 75.5978 18.106 75.6155C18.1556 75.6332 18.2086 75.6392 18.2608 75.633C18.3131 75.6268 18.3632 75.6085 18.4072 75.5796C18.4512 75.5507 18.4879 75.5121 18.5144 75.4666L19.7232 73.3895C19.9108 73.0671 20.3349 72.9798 20.6575 73.1669C20.7957 73.2498 20.9585 73.2817 21.1176 73.2571L22.7843 73.0057C22.9436 72.9825 23.0899 72.9044 23.1978 72.7848C23.4503 72.5129 23.8791 72.4725 24.1515 72.7244L25.9158 74.3559C25.9545 74.3915 26.0009 74.4177 26.0514 74.4324C26.102 74.4471 26.1552 74.4499 26.207 74.4406C26.2587 74.4312 26.3076 74.41 26.3498 74.3786C26.392 74.3472 26.4264 74.3065 26.4502 74.2595C26.8909 73.4086 27.7545 71.3017 26.7112 69.4856C26.6518 69.3826 26.5865 69.2827 26.5159 69.1859C25.8035 68.2093 25.1163 67.154 24.934 65.959C24.4013 62.3363 21.7122 58.1198 19.6719 57.2295ZM20.917 66.2088C20.5856 66.2585 20.2469 66.2088 19.9438 66.066C19.6406 65.9232 19.3867 65.6936 19.214 65.4065C19.0413 65.1193 18.9577 64.7874 18.9737 64.4527C18.9897 64.118 19.1046 63.7955 19.3038 63.5261C19.5031 63.2567 19.7778 63.0525 20.0932 62.9392C20.4085 62.826 20.7504 62.8088 21.0755 62.8898C21.4007 62.9709 21.6945 63.1466 21.9198 63.3946C22.145 63.6427 22.2917 63.952 22.3412 64.2834C22.3742 64.5034 22.3636 64.7277 22.3099 64.9435C22.2562 65.1594 22.1605 65.3625 22.0282 65.5414C21.8959 65.7202 21.7297 65.8712 21.539 65.9857C21.3483 66.1002 21.137 66.176 20.917 66.2088Z" fill="#BE2819"/>
<path d="M23.4293 73.5841C23.47 73.8548 23.3463 74.1491 23.1761 74.4877C22.7922 75.2471 21.7689 75.4116 21.1767 74.7861C20.9524 74.5487 20.6912 74.1439 20.6691 73.9958C20.6646 73.9637 20.6501 73.9338 20.6277 73.9104C20.6053 73.887 20.576 73.8713 20.5442 73.8654C20.5123 73.8596 20.4794 73.8639 20.4501 73.8779C20.4208 73.8918 20.3967 73.9146 20.3811 73.943C20.1483 74.3543 20.0597 74.8316 20.1296 75.2991C20.4585 77.4915 24.6597 76.8617 24.3307 74.6692C24.2615 74.2011 24.0367 73.77 23.6926 73.4453C23.5818 73.347 23.4043 73.4392 23.4293 73.5841Z" fill="#BE2819"/>
<defs>
<filter id="filter0_f_599_190" x="0" y="0" width="132" height="132" filterUnits="userSpaceOnUse" color-interpolation-filters="sRGB">
<feFlood flood-opacity="0" result="BackgroundImageFix"/>
<feBlend mode="normal" in="SourceGraphic" in2="BackgroundImageFix" result="shape"/>
<feGaussianBlur stdDeviation="1" result="effect1_foregroundBlur_599_190"/>
</filter>
<filter id="filter1_f_599_190" x="13.9581" y="21.3252" width="103.136" height="96.6846" filterUnits="userSpaceOnUse" color-interpolation-filters="sRGB">
<feFlood flood-opacity="0" result="BackgroundImageFix"/>
<feBlend mode="normal" in="SourceGraphic" in2="BackgroundImageFix" result="shape"/>
<feGaussianBlur stdDeviation="2" result="effect1_foregroundBlur_599_190"/>
</filter>
<filter id="filter2_f_599_190" x="8.85718" y="31.7139" width="21.7142" height="24.8701" filterUnits="userSpaceOnUse" color-interpolation-filters="sRGB">
<feFlood flood-opacity="0" result="BackgroundImageFix"/>
<feBlend mode="normal" in="SourceGraphic" in2="BackgroundImageFix" result="shape"/>
<feGaussianBlur stdDeviation="2" result="effect1_foregroundBlur_599_190"/>
</filter>
<filter id="filter3_f_599_190" x="13.0422" y="54.6104" width="16.3103" height="26.9531" filterUnits="userSpaceOnUse" color-interpolation-filters="sRGB">
<feFlood flood-opacity="0" result="BackgroundImageFix"/>
<feBlend mode="normal" in="SourceGraphic" in2="BackgroundImageFix" result="shape"/>
<feGaussianBlur stdDeviation="0.5" result="effect1_foregroundBlur_599_190"/>
</filter>
</defs>
</svg>
