<svg width="213" height="183" viewBox="0 0 213 183" fill="none" xmlns="http://www.w3.org/2000/svg">
<path d="M34.0563 139.802C35.1265 138.736 36.9351 139.663 36.6956 141.154L35.2411 150.21C35.134 150.877 35.4685 151.537 36.0696 151.845L44.2328 156.026C45.577 156.715 45.2548 158.721 43.7625 158.954L34.7004 160.369C34.033 160.474 33.5087 160.996 33.4016 161.663L31.947 170.718C31.7075 172.21 29.6997 172.523 29.017 171.176L24.8708 162.995C24.5655 162.392 23.9069 162.055 23.2396 162.159L14.1774 163.574C12.6852 163.807 11.7666 161.994 12.8369 160.929L19.3365 154.457C19.8152 153.981 19.9325 153.25 19.6272 152.648L15.481 144.466C14.7983 143.119 16.2383 141.685 17.5825 142.374L25.7457 146.556C26.3469 146.864 27.0779 146.75 27.5566 146.273L34.0563 139.802Z" fill="url(#paint0_radial_618_18)"/>
<path d="M34.0563 139.802C35.1265 138.736 36.9351 139.663 36.6956 141.154L35.2411 150.21C35.134 150.877 35.4685 151.537 36.0696 151.845L44.2328 156.026C45.577 156.715 45.2548 158.721 43.7625 158.954L34.7004 160.369C34.033 160.474 33.5087 160.996 33.4016 161.663L31.947 170.718C31.7075 172.21 29.6997 172.523 29.017 171.176L24.8708 162.995C24.5655 162.392 23.9069 162.055 23.2396 162.159L14.1774 163.574C12.6852 163.807 11.7666 161.994 12.8369 160.929L19.3365 154.457C19.8152 153.981 19.9325 153.25 19.6272 152.648L15.481 144.466C14.7983 143.119 16.2383 141.685 17.5825 142.374L25.7457 146.556C26.3469 146.864 27.0779 146.75 27.5566 146.273L34.0563 139.802Z" fill="url(#paint1_radial_618_18)"/>
<path d="M55.5558 103.057C56.519 102.098 58.1468 102.932 57.9312 104.274L56.6221 112.425C56.5257 113.025 56.8268 113.619 57.3678 113.896L64.7147 117.66C65.9245 118.279 65.6344 120.085 64.2914 120.295L56.1355 121.568C55.5349 121.662 55.0629 122.132 54.9665 122.732L53.6574 130.883C53.4419 132.225 51.6349 132.507 51.0204 131.294L47.2889 123.931C47.0141 123.389 46.4214 123.085 45.8208 123.179L37.6648 124.453C36.3218 124.662 35.4951 123.031 36.4583 122.072L42.308 116.248C42.7388 115.819 42.8444 115.161 42.5696 114.619L38.8381 107.256C38.2236 106.043 39.5196 104.753 40.7294 105.373L48.0763 109.136C48.6173 109.413 49.2753 109.311 49.7061 108.882L55.5558 103.057Z" fill="url(#paint2_radial_618_18)"/>
<path d="M83.5937 82.8091C84.4125 81.9939 85.7961 82.7027 85.6129 83.8434L84.5001 90.7712C84.4182 91.2814 84.6741 91.7863 85.1339 92.0219L91.3788 95.221C92.4071 95.7477 92.1606 97.2826 91.019 97.4609L84.0865 98.5434C83.576 98.6231 83.1748 99.0225 83.0929 99.5327L81.9802 106.46C81.7969 107.601 80.261 107.841 79.7387 106.81L76.5669 100.552C76.3333 100.091 75.8295 99.8328 75.319 99.9125L68.3864 100.995C67.2449 101.173 66.5421 99.7866 67.3609 98.9714L72.3331 94.0208C72.6993 93.6562 72.7891 93.0973 72.5555 92.6364L69.3837 86.3777C68.8614 85.3471 69.963 84.2502 70.9913 84.777L77.2362 87.9761C77.696 88.2117 78.2553 88.1243 78.6215 87.7598L83.5937 82.8091Z" fill="url(#paint3_radial_618_18)"/>
<path d="M146.962 38.1621C147.558 37.5687 148.565 38.0846 148.432 38.9149L147.622 43.9571C147.562 44.3284 147.748 44.6959 148.083 44.8673L152.628 47.1957C153.377 47.5791 153.197 48.6962 152.366 48.826L147.321 49.6139C146.949 49.6719 146.657 49.9626 146.598 50.3339L145.788 55.3761C145.654 56.2064 144.536 56.3809 144.156 55.6309L141.848 51.0756C141.678 50.7401 141.311 50.5523 140.94 50.6103L135.894 51.3982C135.063 51.528 134.551 50.5187 135.147 49.9254L138.766 46.3222C139.033 46.0568 139.098 45.6501 138.928 45.3146L136.62 40.7593C136.239 40.0093 137.041 39.2109 137.79 39.5943L142.335 41.9227C142.67 42.0942 143.077 42.0306 143.343 41.7653L146.962 38.1621Z" fill="url(#paint4_radial_618_18)"/>
<path d="M143.962 66.1621C144.558 65.5687 145.565 66.0846 145.432 66.9149L144.622 71.9571C144.562 72.3284 144.748 72.6959 145.083 72.8673L149.628 75.1957C150.377 75.5791 150.197 76.6962 149.366 76.826L144.321 77.6139C143.949 77.6719 143.657 77.9626 143.598 78.3339L142.788 83.3761C142.654 84.2064 141.536 84.3809 141.156 83.6309L138.848 79.0756C138.678 78.7401 138.311 78.5523 137.94 78.6103L132.894 79.3982C132.063 79.528 131.551 78.5187 132.147 77.9254L135.766 74.3222C136.033 74.0568 136.098 73.6501 135.928 73.3146L133.62 68.7593C133.239 68.0093 134.041 67.2109 134.79 67.5943L139.335 69.9227C139.67 70.0942 140.077 70.0306 140.343 69.7653L143.962 66.1621Z" fill="url(#paint5_radial_618_18)"/>
<path d="M166.066 20.8697C166.602 20.3357 167.508 20.8 167.388 21.5472L166.66 26.0852C166.606 26.4194 166.774 26.7501 167.075 26.9045L171.165 29C171.839 29.345 171.678 30.3505 170.93 30.4672L166.389 31.1763C166.054 31.2286 165.791 31.4902 165.738 31.8243L165.009 36.3624C164.889 37.1096 163.883 37.2667 163.541 36.5916L161.463 32.4919C161.31 32.19 160.98 32.0209 160.646 32.0731L156.104 32.7823C155.357 32.899 154.896 31.9907 155.433 31.4567L158.69 28.2138C158.93 27.975 158.988 27.6089 158.835 27.307L156.758 23.2073C156.416 22.5322 157.137 21.8137 157.811 22.1588L161.901 24.2543C162.203 24.4086 162.569 24.3514 162.809 24.1126L166.066 20.8697Z" fill="url(#paint6_radial_618_18)"/>
<path d="M181.677 9.59519C182.133 9.14129 182.903 9.53593 182.801 10.1711L182.182 14.0284C182.136 14.3124 182.279 14.5936 182.535 14.7247L186.012 16.5059C186.584 16.7992 186.447 17.6538 185.811 17.7531L181.951 18.3558C181.667 18.4002 181.444 18.6226 181.398 18.9067L180.779 22.764C180.677 23.3991 179.821 23.5327 179.531 22.9588L177.765 19.4741C177.635 19.2174 177.354 19.0737 177.07 19.1181L173.21 19.7209C172.574 19.8201 172.183 19.048 172.639 18.5942L175.407 15.8377C175.611 15.6347 175.661 15.3235 175.531 15.0669L173.765 11.5821C173.474 11.0083 174.088 10.3976 174.66 10.6909L178.137 12.4721C178.393 12.6033 178.705 12.5546 178.909 12.3516L181.677 9.59519Z" fill="url(#paint7_radial_618_18)"/>
<path d="M198.044 3.83528C198.363 3.51756 198.902 3.7938 198.831 4.23841L198.397 6.93853C198.365 7.13736 198.465 7.33415 198.644 7.42597L201.078 8.67281C201.479 8.87812 201.383 9.47634 200.938 9.54582L198.236 9.96774C198.037 9.99881 197.881 10.1545 197.849 10.3533L197.415 13.0534C197.344 13.498 196.745 13.5915 196.541 13.1898L195.305 10.7505C195.214 10.5709 195.018 10.4703 194.819 10.5013L192.117 10.9233C191.672 10.9927 191.398 10.4523 191.717 10.1346L193.655 8.20504C193.798 8.06294 193.833 7.84512 193.742 7.66549L192.505 5.22614C192.302 4.82446 192.731 4.39696 193.132 4.60228L195.566 5.84911C195.745 5.94093 195.963 5.9069 196.106 5.7648L198.044 3.83528Z" fill="url(#paint8_radial_618_18)"/>
<path d="M205.745 12.5013C206.064 12.1836 206.603 12.4598 206.532 12.9044L206.098 15.6045C206.066 15.8034 206.166 16.0002 206.345 16.092L208.779 17.3388C209.18 17.5441 209.084 18.1424 208.639 18.2118L205.937 18.6338C205.738 18.6648 205.582 18.8205 205.55 19.0193L205.116 21.7194C205.045 22.164 204.446 22.2575 204.243 21.8559L203.006 19.4165C202.915 19.2369 202.719 19.1363 202.52 19.1674L199.818 19.5893C199.373 19.6587 199.099 19.1183 199.418 18.8006L201.356 16.8711C201.499 16.729 201.534 16.5111 201.443 16.3315L200.207 13.8922C200.003 13.4905 200.432 13.063 200.833 13.2683L203.267 14.5151C203.446 14.6069 203.664 14.5729 203.807 14.4308L205.745 12.5013Z" fill="url(#paint9_radial_618_18)"/>
<path d="M192.845 20.7114C193.301 20.2575 194.071 20.6521 193.969 21.2873L193.349 25.1446C193.304 25.4287 193.446 25.7098 193.702 25.841L197.179 27.6222C197.752 27.9155 197.615 28.7701 196.979 28.8693L193.119 29.4721C192.835 29.5164 192.611 29.7388 192.566 30.0229L191.946 33.8802C191.844 34.5153 190.989 34.6489 190.698 34.075L188.932 30.5903C188.802 30.3336 188.522 30.1899 188.237 30.2343L184.377 30.8371C183.742 30.9363 183.351 30.1643 183.806 29.7104L186.575 26.9539C186.779 26.7509 186.829 26.4397 186.699 26.1831L184.933 22.6983C184.642 22.1245 185.255 21.5138 185.828 21.8071L189.305 23.5883C189.561 23.7195 189.872 23.6708 190.076 23.4679L192.845 20.7114Z" fill="url(#paint10_radial_618_18)"/>
<path d="M178.028 33.0679C178.564 32.5339 179.471 32.9982 179.35 33.7455L178.622 38.2835C178.568 38.6176 178.736 38.9484 179.037 39.1027L183.127 41.1982C183.801 41.5433 183.64 42.5487 182.892 42.6655L178.351 43.3746C178.016 43.4268 177.753 43.6884 177.7 44.0226L176.971 48.5606C176.851 49.3079 175.845 49.465 175.503 48.7899L173.425 44.6901C173.272 44.3882 172.942 44.2192 172.608 44.2714L168.066 44.9805C167.319 45.0973 166.858 44.189 167.395 43.655L170.652 40.4121C170.892 40.1733 170.95 39.8072 170.797 39.5053L168.72 35.4055C168.378 34.7304 169.099 34.0119 169.773 34.357L173.863 36.4525C174.165 36.6068 174.531 36.5496 174.771 36.3108L178.028 33.0679Z" fill="url(#paint11_radial_618_18)"/>
<path d="M112.989 72.4634C113.562 71.8928 114.53 72.3889 114.402 73.1875L113.623 78.0369C113.566 78.394 113.745 78.7475 114.067 78.9124L118.438 81.1517C119.158 81.5205 118.986 82.5949 118.186 82.7197L113.334 83.4775C112.976 83.5333 112.696 83.8128 112.638 84.1699L111.859 89.0194C111.731 89.8179 110.656 89.9858 110.29 89.2644L108.07 84.8833C107.906 84.5607 107.554 84.38 107.196 84.4358L102.344 85.1936C101.545 85.3184 101.053 84.3477 101.626 83.7771L105.106 80.3116C105.363 80.0564 105.426 79.6652 105.262 79.3426L103.042 74.9614C102.676 74.24 103.447 73.4722 104.167 73.841L108.538 76.0803C108.86 76.2452 109.252 76.1841 109.508 75.9289L112.989 72.4634Z" fill="url(#paint12_radial_618_18)"/>
<path d="M126.82 88.0279C127.393 87.4573 128.362 87.9534 128.234 88.7519L127.455 93.6014C127.397 93.9585 127.576 94.3119 127.898 94.4768L132.27 96.7162C132.99 97.0849 132.817 98.1593 132.018 98.2841L127.165 99.0419C126.808 99.0977 126.527 99.3773 126.47 99.7344L125.691 104.584C125.563 105.382 124.487 105.55 124.122 104.829L121.901 100.448C121.738 100.125 121.385 99.9445 121.028 100L116.175 100.758C115.376 100.883 114.884 99.9122 115.457 99.3415L118.938 95.8761C119.194 95.6209 119.257 95.2296 119.093 94.907L116.873 90.5259C116.508 89.8045 117.279 89.0367 117.999 89.4054L122.37 91.6448C122.692 91.8097 123.083 91.7486 123.34 91.4934L126.82 88.0279Z" fill="url(#paint13_radial_618_18)"/>
<path d="M103.651 102.774C104.469 101.959 105.853 102.668 105.67 103.808L104.557 110.736C104.475 111.246 104.731 111.751 105.191 111.987L111.436 115.186C112.464 115.713 112.217 117.247 111.076 117.426L104.143 118.508C103.633 118.588 103.232 118.987 103.15 119.498L102.037 126.425C101.854 127.566 100.318 127.806 99.7956 126.775L96.6237 120.517C96.3902 120.056 95.8864 119.798 95.3759 119.877L88.4433 120.96C87.3017 121.138 86.599 119.751 87.4178 118.936L92.39 113.986C92.7562 113.621 92.846 113.062 92.6124 112.601L89.4405 106.343C88.9182 105.312 90.0199 104.215 91.0482 104.742L97.2931 107.941C97.7529 108.177 98.3122 108.089 98.6784 107.725L103.651 102.774Z" fill="url(#paint14_radial_618_18)"/>
<path d="M77.0399 124.966C78.0032 124.006 79.6309 124.84 79.4154 126.182L78.1063 134.333C78.0099 134.933 78.3109 135.527 78.8519 135.804L86.1988 139.568C87.4086 140.187 87.1186 141.993 85.7756 142.203L77.6196 143.477C77.019 143.57 76.5471 144.04 76.4507 144.64L75.1416 152.791C74.926 154.133 73.119 154.415 72.5046 153.202L68.773 145.839C68.4982 145.297 67.9055 144.993 67.3049 145.087L59.1489 146.361C57.8059 146.571 56.9792 144.939 57.9424 143.98L63.7922 138.156C64.2229 137.727 64.3286 137.069 64.0538 136.527L60.3222 129.164C59.7077 127.951 61.0038 126.661 62.2135 127.281L69.5604 131.044C70.1015 131.322 70.7594 131.219 71.1902 130.79L77.0399 124.966Z" fill="url(#paint15_radial_618_18)"/>
<defs>
<radialGradient id="paint0_radial_618_18" cx="0" cy="0" r="1" gradientUnits="userSpaceOnUse" gradientTransform="translate(27.9789 154.917) rotate(117.125) scale(20.7876)">
<stop offset="0.161458" stop-color="#FFCC2F"/>
<stop offset="0.807292" stop-color="#E99028"/>
</radialGradient>
<radialGradient id="paint1_radial_618_18" cx="0" cy="0" r="1" gradientUnits="userSpaceOnUse" gradientTransform="translate(27.9789 154.917) rotate(117.125) scale(20.7876)">
<stop offset="0.161458" stop-color="#FFCC2F"/>
<stop offset="0.807292" stop-color="#E99028"/>
</radialGradient>
<radialGradient id="paint2_radial_618_18" cx="0" cy="0" r="1" gradientUnits="userSpaceOnUse" gradientTransform="translate(50.0862 116.662) rotate(117.125) scale(18.7088 18.7088)">
<stop offset="0.161458" stop-color="#FFCC2F"/>
<stop offset="0.807292" stop-color="#E99028"/>
</radialGradient>
<radialGradient id="paint3_radial_618_18" cx="0" cy="0" r="1" gradientUnits="userSpaceOnUse" gradientTransform="translate(78.9446 94.3726) rotate(117.125) scale(15.9025)">
<stop offset="0.161458" stop-color="#FFCC2F"/>
<stop offset="0.807292" stop-color="#E99028"/>
</radialGradient>
<radialGradient id="paint4_radial_618_18" cx="0" cy="0" r="1" gradientUnits="userSpaceOnUse" gradientTransform="translate(143.578 46.5783) rotate(117.125) scale(11.5742)">
<stop offset="0.161458" stop-color="#FFCC2F"/>
<stop offset="0.807292" stop-color="#E99028"/>
</radialGradient>
<radialGradient id="paint5_radial_618_18" cx="0" cy="0" r="1" gradientUnits="userSpaceOnUse" gradientTransform="translate(140.578 74.5783) rotate(117.125) scale(11.5742)">
<stop offset="0.161458" stop-color="#FFCC2F"/>
<stop offset="0.807292" stop-color="#E99028"/>
</radialGradient>
<radialGradient id="paint6_radial_618_18" cx="0" cy="0" r="1" gradientUnits="userSpaceOnUse" gradientTransform="translate(163.02 28.4443) rotate(117.125) scale(10.4168 10.4168)">
<stop offset="0.161458" stop-color="#FFCC2F"/>
<stop offset="0.807292" stop-color="#E99028"/>
</radialGradient>
<radialGradient id="paint7_radial_618_18" cx="0" cy="0" r="1" gradientUnits="userSpaceOnUse" gradientTransform="translate(179.089 16.0336) rotate(117.125) scale(8.8543)">
<stop offset="0.161458" stop-color="#FFCC2F"/>
<stop offset="0.807292" stop-color="#E99028"/>
</radialGradient>
<radialGradient id="paint8_radial_618_18" cx="0" cy="0" r="1" gradientUnits="userSpaceOnUse" gradientTransform="translate(196.232 8.34218) rotate(117.125) scale(6.19801)">
<stop offset="0.161458" stop-color="#FFCC2F"/>
<stop offset="0.807292" stop-color="#E99028"/>
</radialGradient>
<radialGradient id="paint9_radial_618_18" cx="0" cy="0" r="1" gradientUnits="userSpaceOnUse" gradientTransform="translate(203.933 17.0082) rotate(117.125) scale(6.19801)">
<stop offset="0.161458" stop-color="#FFCC2F"/>
<stop offset="0.807292" stop-color="#E99028"/>
</radialGradient>
<radialGradient id="paint10_radial_618_18" cx="0" cy="0" r="1" gradientUnits="userSpaceOnUse" gradientTransform="translate(190.256 27.1498) rotate(117.125) scale(8.8543)">
<stop offset="0.161458" stop-color="#FFCC2F"/>
<stop offset="0.807292" stop-color="#E99028"/>
</radialGradient>
<radialGradient id="paint11_radial_618_18" cx="0" cy="0" r="1" gradientUnits="userSpaceOnUse" gradientTransform="translate(174.982 40.6426) rotate(117.125) scale(10.4168 10.4168)">
<stop offset="0.161458" stop-color="#FFCC2F"/>
<stop offset="0.807292" stop-color="#E99028"/>
</radialGradient>
<radialGradient id="paint12_radial_618_18" cx="0" cy="0" r="1" gradientUnits="userSpaceOnUse" gradientTransform="translate(109.734 80.5579) rotate(117.125) scale(11.1317)">
<stop offset="0.161458" stop-color="#FFCC2F"/>
<stop offset="0.807292" stop-color="#E99028"/>
</radialGradient>
<radialGradient id="paint13_radial_618_18" cx="0" cy="0" r="1" gradientUnits="userSpaceOnUse" gradientTransform="translate(123.566 96.1224) rotate(117.125) scale(11.1317)">
<stop offset="0.161458" stop-color="#FFCC2F"/>
<stop offset="0.807292" stop-color="#E99028"/>
</radialGradient>
<radialGradient id="paint14_radial_618_18" cx="0" cy="0" r="1" gradientUnits="userSpaceOnUse" gradientTransform="translate(99.0014 114.337) rotate(117.125) scale(15.9025)">
<stop offset="0.161458" stop-color="#FFCC2F"/>
<stop offset="0.807292" stop-color="#E99028"/>
</radialGradient>
<radialGradient id="paint15_radial_618_18" cx="0" cy="0" r="1" gradientUnits="userSpaceOnUse" gradientTransform="translate(71.5703 138.57) rotate(117.125) scale(18.7088 18.7088)">
<stop offset="0.161458" stop-color="#FFCC2F"/>
<stop offset="0.807292" stop-color="#E99028"/>
</radialGradient>
</defs>
</svg>
