<svg width="150" height="303" viewBox="0 0 150 303" fill="none" xmlns="http://www.w3.org/2000/svg">
<path d="M97.0522 252.278C96.215 250.586 98.0323 248.811 99.7041 249.688L109.857 255.014C110.605 255.406 111.52 255.272 112.124 254.682L120.326 246.672C121.677 245.353 123.927 246.532 123.609 248.393L121.682 259.695C121.54 260.527 121.95 261.356 122.698 261.749L132.851 267.074C134.523 267.951 134.096 270.455 132.228 270.728L120.884 272.388C120.048 272.51 119.386 273.156 119.245 273.988L117.317 285.29C117 287.151 114.487 287.519 113.649 285.827L108.566 275.551C108.191 274.794 107.372 274.364 106.537 274.486L95.1924 276.146C93.3244 276.419 92.1981 274.142 93.5487 272.823L101.751 264.813C102.355 264.223 102.51 263.311 102.136 262.555L97.0522 252.278Z" fill="url(#paint0_radial_618_19)"/>
<path d="M97.0522 252.278C96.215 250.586 98.0323 248.811 99.7041 249.688L109.857 255.014C110.605 255.406 111.52 255.272 112.124 254.682L120.326 246.672C121.677 245.353 123.927 246.532 123.609 248.393L121.682 259.695C121.54 260.527 121.95 261.356 122.698 261.749L132.851 267.074C134.523 267.951 134.096 270.455 132.228 270.728L120.884 272.388C120.048 272.51 119.386 273.156 119.245 273.988L117.317 285.29C117 287.151 114.487 287.519 113.649 285.827L108.566 275.551C108.191 274.794 107.372 274.364 106.537 274.486L95.1924 276.146C93.3244 276.419 92.1981 274.142 93.5487 272.823L101.751 264.813C102.355 264.223 102.51 263.311 102.136 262.555L97.0522 252.278Z" fill="url(#paint1_radial_618_19)"/>
<path d="M62.0599 212.187C61.3065 210.664 62.942 209.067 64.4467 209.856L73.5845 214.649C74.2574 215.002 75.0811 214.881 75.6247 214.351L83.0067 207.141C84.2223 205.954 86.2468 207.016 85.9612 208.691L84.2267 218.862C84.0989 219.611 84.468 220.358 85.141 220.71L94.2788 225.503C95.7835 226.293 95.3992 228.546 93.718 228.792L83.5082 230.286C82.7563 230.396 82.1608 230.977 82.033 231.726L80.2985 241.898C80.0129 243.573 77.7509 243.904 76.9975 242.381L72.4219 233.132C72.085 232.451 71.3478 232.064 70.596 232.174L60.3861 233.668C58.7049 233.914 57.6912 231.865 58.9068 230.678L66.2888 223.468C66.8324 222.937 66.9723 222.117 66.6354 221.436L62.0599 212.187Z" fill="url(#paint2_radial_618_19)"/>
<path d="M49.2163 170.909C48.5758 169.615 49.966 168.257 51.245 168.928L59.0122 173.002C59.5842 173.302 60.2843 173.2 60.7463 172.748L67.0211 166.62C68.0543 165.611 69.7751 166.514 69.5324 167.937L68.058 176.583C67.9495 177.22 68.2632 177.854 68.8352 178.154L76.6023 182.228C77.8813 182.899 77.5547 184.814 76.1257 185.023L67.4473 186.293C66.8082 186.387 66.302 186.881 66.1934 187.518L64.7191 196.163C64.4763 197.587 62.5536 197.868 61.9132 196.574L58.024 188.713C57.7376 188.134 57.111 187.805 56.4719 187.899L47.7936 189.168C46.3645 189.377 45.5029 187.635 46.5361 186.626L52.8108 180.498C53.2729 180.047 53.3918 179.35 53.1054 178.771L49.2163 170.909Z" fill="url(#paint3_radial_618_19)"/>
<path d="M27.8313 81.1015C27.3652 80.1593 28.377 79.1712 29.3079 79.6594L34.9611 82.6245C35.3774 82.8429 35.8869 82.7683 36.2232 82.4399L40.7901 77.9797C41.5421 77.2453 42.7946 77.9022 42.6179 78.9384L41.5448 85.2311C41.4658 85.6945 41.6942 86.156 42.1105 86.3744L47.7636 89.3395C48.6945 89.8277 48.4567 91.2219 47.4167 91.3741L41.1003 92.2981C40.6352 92.3661 40.2668 92.7259 40.1878 93.1893L39.1147 99.482C38.938 100.518 37.5386 100.723 37.0725 99.7808L34.2418 94.0591C34.0334 93.6378 33.5773 93.3986 33.1122 93.4666L26.7959 94.3906C25.7558 94.5428 25.1286 93.2751 25.8806 92.5407L30.4475 88.0805C30.7839 87.7521 30.8704 87.2444 30.662 86.8231L27.8313 81.1015Z" fill="url(#paint4_radial_618_19)"/>
<path d="M56.8313 91.1015C56.3652 90.1593 57.377 89.1712 58.3079 89.6594L63.9611 92.6245C64.3774 92.8429 64.8869 92.7683 65.2232 92.4399L69.7901 87.9797C70.5421 87.2453 71.7946 87.9022 71.6179 88.9384L70.5448 95.2311C70.4658 95.6945 70.6942 96.156 71.1105 96.3744L76.7636 99.3395C77.6945 99.8277 77.4567 101.222 76.4167 101.374L70.1003 102.298C69.6352 102.366 69.2668 102.726 69.1878 103.189L68.1147 109.482C67.938 110.518 66.5386 110.723 66.0725 109.781L63.2418 104.059C63.0334 103.638 62.5773 103.399 62.1122 103.467L55.7959 104.391C54.7558 104.543 54.1286 103.275 54.8806 102.541L59.4475 98.0805C59.7839 97.7521 59.8704 97.2444 59.662 96.8231L56.8313 91.1015Z" fill="url(#paint5_radial_618_19)"/>
<path d="M16.2025 57.3658C15.783 56.5178 16.6937 55.6285 17.5315 56.0679L22.6193 58.7365C22.994 58.933 23.4526 58.8659 23.7552 58.5703L27.8654 54.5562C28.5422 53.8952 29.6695 54.4864 29.5105 55.419L28.5447 61.0824C28.4736 61.4995 28.6791 61.9149 29.0538 62.1114L34.1416 64.78C34.9794 65.2194 34.7654 66.4742 33.8293 66.6111L28.1446 67.4427C27.726 67.504 27.3944 67.8278 27.3233 68.2448L26.3576 73.9083C26.1985 74.8408 24.9391 75.0251 24.5196 74.1771L21.972 69.0277C21.7844 68.6485 21.3739 68.4332 20.9553 68.4944L15.2706 69.326C14.3345 69.4629 13.7701 68.3221 14.4469 67.6611L18.5571 63.6469C18.8598 63.3513 18.9377 62.8944 18.7501 62.5152L16.2025 57.3658Z" fill="url(#paint6_radial_618_19)"/>
<path d="M9.05098 34.382C8.69441 33.6612 9.46845 32.9053 10.1806 33.2788L14.5052 35.5471C14.8237 35.7141 15.2135 35.6571 15.4708 35.4058L18.9645 31.9938C19.5398 31.432 20.4979 31.9345 20.3627 32.7272L19.5418 37.5411C19.4814 37.8956 19.6561 38.2487 19.9745 38.4158L24.2992 40.6841C25.0113 41.0576 24.8294 42.1241 24.0338 42.2405L19.2018 42.9474C18.8459 42.9994 18.5641 43.2747 18.5037 43.6292L17.6828 48.4431C17.5476 49.2358 16.477 49.3924 16.1205 48.6716L13.955 44.2946C13.7955 43.9723 13.4467 43.7893 13.0908 43.8413L8.25884 44.5482C7.46318 44.6646 6.98342 43.6948 7.5587 43.133L11.0524 39.721C11.3097 39.4697 11.3759 39.0813 11.2164 38.759L9.05098 34.382Z" fill="url(#paint7_radial_618_19)"/>
<path d="M8.73473 12.6966C8.48513 12.1921 9.02696 11.6629 9.52545 11.9243L12.5527 13.5122C12.7756 13.6291 13.0485 13.5892 13.2286 13.4133L15.6742 11.0249C16.0769 10.6316 16.7476 10.9834 16.653 11.5382L16.0783 14.908C16.036 15.1561 16.1583 15.4033 16.3812 15.5202L19.4085 17.108C19.907 17.3695 19.7796 18.1161 19.2227 18.1976L15.8403 18.6924C15.5912 18.7288 15.3939 18.9215 15.3516 19.1696L14.777 22.5394C14.6823 23.0942 13.933 23.2039 13.6834 22.6993L12.1676 19.6354C12.0559 19.4098 11.8117 19.2817 11.5626 19.3181L8.18024 19.8129C7.62327 19.8944 7.28744 19.2156 7.69014 18.8223L10.1357 16.4339C10.3158 16.258 10.3622 15.9861 10.2505 15.7605L8.73473 12.6966Z" fill="url(#paint8_radial_618_19)"/>
<path d="M22.0666 7.01592C21.817 6.5114 22.3589 5.98223 22.8574 6.24369L25.8846 7.83149C26.1075 7.94842 26.3804 7.9085 26.5605 7.73262L29.0061 5.3442C29.4088 4.95091 30.0795 5.3027 29.9849 5.85758L29.4102 9.22731C29.3679 9.47546 29.4902 9.72264 29.7131 9.83957L32.7404 11.4274C33.2389 11.6888 33.1116 12.4354 32.5546 12.5169L29.1722 13.0117C28.9231 13.0481 28.7258 13.2408 28.6835 13.489L28.1089 16.8587C28.0143 17.4136 27.2649 17.5232 27.0153 17.0187L25.4995 13.9547C25.3878 13.7291 25.1436 13.601 24.8945 13.6375L21.5121 14.1323C20.9552 14.2137 20.6193 13.5349 21.022 13.1416L23.4676 10.7532C23.6477 10.5773 23.6941 10.3055 23.5825 10.0798L22.0666 7.01592Z" fill="url(#paint9_radial_618_19)"/>
<path d="M26.6659 25.5685C26.3093 24.8477 27.0833 24.0918 27.7954 24.4653L32.1201 26.7336C32.4386 26.9006 32.8284 26.8436 33.0856 26.5924L36.5793 23.1803C37.1546 22.6185 38.1128 23.121 37.9776 23.9137L37.1567 28.7276C37.0962 29.0821 37.2709 29.4352 37.5894 29.6023L41.9141 31.8706C42.6262 32.2441 42.4443 33.3106 41.6486 33.427L36.8166 34.1339C36.4608 34.1859 36.179 34.4612 36.1185 34.8157L35.2976 39.6296C35.1624 40.4223 34.0919 40.5789 33.7353 39.8582L31.5699 35.4811C31.4104 35.1588 31.0615 34.9758 30.7057 35.0278L25.8737 35.7347C25.078 35.8511 24.5983 34.8813 25.1736 34.3195L28.6673 30.9075C28.9245 30.6562 28.9908 30.2679 28.8313 29.9455L26.6659 25.5685Z" fill="url(#paint10_radial_618_19)"/>
<path d="M35.4154 48.0406C34.9959 47.1926 35.9065 46.3033 36.7443 46.7427L41.8321 49.4113C42.2068 49.6078 42.6654 49.5407 42.9681 49.2451L47.0783 45.231C47.7551 44.57 48.8823 45.1612 48.7233 46.0938L47.7575 51.7572C47.6864 52.1743 47.8919 52.5897 48.2666 52.7862L53.3544 55.4548C54.1922 55.8942 53.9782 57.149 53.0422 57.2859L47.3575 58.1175C46.9389 58.1788 46.6073 58.5026 46.5362 58.9196L45.5704 64.5831C45.4114 65.5156 44.1519 65.6999 43.7324 64.8519L41.1848 59.7025C40.9972 59.3233 40.5868 59.108 40.1681 59.1692L34.4834 60.0008C33.5474 60.1377 32.9829 58.9969 33.6597 58.3359L37.77 54.3217C38.0726 54.0261 38.1505 53.5692 37.9629 53.19L35.4154 48.0406Z" fill="url(#paint11_radial_618_19)"/>
<path d="M48.6465 131.958C48.1982 131.052 49.1714 130.102 50.0667 130.572L55.5037 133.423C55.9041 133.633 56.3941 133.562 56.7176 133.246L61.1099 128.956C61.8332 128.25 63.0378 128.881 62.8678 129.878L61.8358 135.93C61.7598 136.376 61.9794 136.82 62.3798 137.03L67.8168 139.882C68.7121 140.351 68.4834 141.692 67.4831 141.838L61.4083 142.727C60.9609 142.792 60.6066 143.138 60.5306 143.584L59.4985 149.636C59.3286 150.633 57.9827 150.83 57.5344 149.924L54.8119 144.421C54.6115 144.016 54.1729 143.785 53.7255 143.851L47.6506 144.74C46.6503 144.886 46.0472 143.667 46.7704 142.96L51.1627 138.671C51.4862 138.355 51.5694 137.867 51.369 137.461L48.6465 131.958Z" fill="url(#paint12_radial_618_19)"/>
<path d="M72.592 121.758C72.1437 120.852 73.1169 119.902 74.0122 120.371L79.4492 123.223C79.8496 123.433 80.3396 123.361 80.6631 123.045L85.0554 118.756C85.7787 118.049 86.9833 118.681 86.8133 119.678L85.7813 125.73C85.7053 126.176 85.9249 126.62 86.3253 126.83L91.7623 129.681C92.6576 130.151 92.4289 131.492 91.4286 131.638L85.3537 132.527C84.9064 132.592 84.5521 132.938 84.4761 133.384L83.444 139.436C83.2741 140.433 81.9282 140.63 81.4799 139.723L78.7574 134.221C78.557 133.815 78.1183 133.585 77.671 133.651L71.5961 134.539C70.5958 134.686 69.9927 133.467 70.7159 132.76L75.1082 128.471C75.4317 128.155 75.5149 127.666 75.3145 127.261L72.592 121.758Z" fill="url(#paint13_radial_618_19)"/>
<path d="M80.8518 155.079C80.2114 153.785 81.6016 152.427 82.8806 153.098L90.6477 157.172C91.2197 157.472 91.9198 157.369 92.3819 156.918L98.6566 150.79C99.6899 149.781 101.411 150.684 101.168 152.107L99.6936 160.753C99.585 161.39 99.8988 162.024 100.471 162.324L108.238 166.398C109.517 167.069 109.19 168.984 107.761 169.193L99.0828 170.463C98.4438 170.556 97.9376 171.051 97.829 171.687L96.3546 180.333C96.1119 181.757 94.1891 182.038 93.5487 180.744L89.6596 172.883C89.3732 172.304 88.7466 171.975 88.1075 172.069L79.4291 173.338C78.0001 173.547 77.1384 171.805 78.1716 170.796L84.4464 164.668C84.9084 164.217 85.0274 163.52 84.741 162.941L80.8518 155.079Z" fill="url(#paint14_radial_618_19)"/>
<path d="M96.5662 195.442C95.8128 193.919 97.4483 192.322 98.953 193.111L108.091 197.904C108.764 198.257 109.587 198.136 110.131 197.605L117.513 190.396C118.729 189.209 120.753 190.271 120.468 191.946L118.733 202.117C118.605 202.866 118.974 203.612 119.647 203.965L128.785 208.758C130.29 209.547 129.906 211.801 128.224 212.047L118.015 213.54C117.263 213.65 116.667 214.232 116.539 214.981L114.805 225.153C114.519 226.828 112.257 227.159 111.504 225.636L106.928 216.387C106.591 215.706 105.854 215.319 105.102 215.429L94.8925 216.923C93.2113 217.169 92.1975 215.12 93.4131 213.933L100.795 206.723C101.339 206.192 101.479 205.372 101.142 204.691L96.5662 195.442Z" fill="url(#paint15_radial_618_19)"/>
<defs>
<radialGradient id="paint0_radial_618_19" cx="0" cy="0" r="1" gradientUnits="userSpaceOnUse" gradientTransform="translate(112.548 265.492) rotate(45.6772) scale(25.9844 25.9844)">
<stop offset="0.161458" stop-color="#FFCC2F"/>
<stop offset="0.807292" stop-color="#E99028"/>
</radialGradient>
<radialGradient id="paint1_radial_618_19" cx="0" cy="0" r="1" gradientUnits="userSpaceOnUse" gradientTransform="translate(112.548 265.492) rotate(45.6772) scale(25.9844 25.9844)">
<stop offset="0.161458" stop-color="#FFCC2F"/>
<stop offset="0.807292" stop-color="#E99028"/>
</radialGradient>
<radialGradient id="paint2_radial_618_19" cx="0" cy="0" r="1" gradientUnits="userSpaceOnUse" gradientTransform="translate(76.006 224.079) rotate(45.6772) scale(23.386 23.3859)">
<stop offset="0.161458" stop-color="#FFCC2F"/>
<stop offset="0.807292" stop-color="#E99028"/>
</radialGradient>
<radialGradient id="paint3_radial_618_19" cx="0" cy="0" r="1" gradientUnits="userSpaceOnUse" gradientTransform="translate(61.0705 181.018) rotate(45.6772) scale(19.8781 19.8781)">
<stop offset="0.161458" stop-color="#FFCC2F"/>
<stop offset="0.807292" stop-color="#E99028"/>
</radialGradient>
<radialGradient id="paint4_radial_618_19" cx="0" cy="0" r="1" gradientUnits="userSpaceOnUse" gradientTransform="translate(36.4591 88.4587) rotate(45.6772) scale(14.4678 14.4678)">
<stop offset="0.161458" stop-color="#FFCC2F"/>
<stop offset="0.807292" stop-color="#E99028"/>
</radialGradient>
<radialGradient id="paint5_radial_618_19" cx="0" cy="0" r="1" gradientUnits="userSpaceOnUse" gradientTransform="translate(65.4591 98.4587) rotate(45.6772) scale(14.4678 14.4678)">
<stop offset="0.161458" stop-color="#FFCC2F"/>
<stop offset="0.807292" stop-color="#E99028"/>
</radialGradient>
<radialGradient id="paint6_radial_618_19" cx="0" cy="0" r="1" gradientUnits="userSpaceOnUse" gradientTransform="translate(23.9675 63.9872) rotate(45.6772) scale(13.021 13.021)">
<stop offset="0.161458" stop-color="#FFCC2F"/>
<stop offset="0.807292" stop-color="#E99028"/>
</radialGradient>
<radialGradient id="paint7_radial_618_19" cx="0" cy="0" r="1" gradientUnits="userSpaceOnUse" gradientTransform="translate(15.6512 40.0102) rotate(45.6772) scale(11.0678 11.0678)">
<stop offset="0.161458" stop-color="#FFCC2F"/>
<stop offset="0.807292" stop-color="#E99028"/>
</radialGradient>
<radialGradient id="paint8_radial_618_19" cx="0" cy="0" r="1" gradientUnits="userSpaceOnUse" gradientTransform="translate(13.3549 16.6364) rotate(45.6772) scale(7.74749)">
<stop offset="0.161458" stop-color="#FFCC2F"/>
<stop offset="0.807292" stop-color="#E99028"/>
</radialGradient>
<radialGradient id="paint9_radial_618_19" cx="0" cy="0" r="1" gradientUnits="userSpaceOnUse" gradientTransform="translate(26.6868 10.9557) rotate(45.6772) scale(7.74749)">
<stop offset="0.161458" stop-color="#FFCC2F"/>
<stop offset="0.807292" stop-color="#E99028"/>
</radialGradient>
<radialGradient id="paint10_radial_618_19" cx="0" cy="0" r="1" gradientUnits="userSpaceOnUse" gradientTransform="translate(33.2661 31.1967) rotate(45.6772) scale(11.0678 11.0678)">
<stop offset="0.161458" stop-color="#FFCC2F"/>
<stop offset="0.807292" stop-color="#E99028"/>
</radialGradient>
<radialGradient id="paint11_radial_618_19" cx="0" cy="0" r="1" gradientUnits="userSpaceOnUse" gradientTransform="translate(43.1804 54.662) rotate(45.6772) scale(13.021 13.021)">
<stop offset="0.161458" stop-color="#FFCC2F"/>
<stop offset="0.807292" stop-color="#E99028"/>
</radialGradient>
<radialGradient id="paint12_radial_618_19" cx="0" cy="0" r="1" gradientUnits="userSpaceOnUse" gradientTransform="translate(56.9445 139.034) rotate(45.6772) scale(13.9146)">
<stop offset="0.161458" stop-color="#FFCC2F"/>
<stop offset="0.807292" stop-color="#E99028"/>
</radialGradient>
<radialGradient id="paint13_radial_618_19" cx="0" cy="0" r="1" gradientUnits="userSpaceOnUse" gradientTransform="translate(80.89 128.834) rotate(45.6772) scale(13.9146)">
<stop offset="0.161458" stop-color="#FFCC2F"/>
<stop offset="0.807292" stop-color="#E99028"/>
</radialGradient>
<radialGradient id="paint14_radial_618_19" cx="0" cy="0" r="1" gradientUnits="userSpaceOnUse" gradientTransform="translate(92.706 165.188) rotate(45.6772) scale(19.8781 19.8781)">
<stop offset="0.161458" stop-color="#FFCC2F"/>
<stop offset="0.807292" stop-color="#E99028"/>
</radialGradient>
<radialGradient id="paint15_radial_618_19" cx="0" cy="0" r="1" gradientUnits="userSpaceOnUse" gradientTransform="translate(110.512 207.334) rotate(45.6772) scale(23.386 23.3859)">
<stop offset="0.161458" stop-color="#FFCC2F"/>
<stop offset="0.807292" stop-color="#E99028"/>
</radialGradient>
</defs>
</svg>
