<svg width="266" height="76" viewBox="0 0 266 76" fill="none" xmlns="http://www.w3.org/2000/svg">
<path d="M65.25 16.25H253.5C258.885 16.25 263.25 20.6152 263.25 26V48.5C263.25 53.8848 258.885 58.25 253.5 58.25H65.25V16.25Z" stroke="#37B85B" stroke-width="4.5"/>
<path d="M119.976 15.2236C115.712 32.9671 116.245 45.2039 119.976 59.2763" stroke="#37B85B" stroke-width="3"/>
<path d="M168 15.2236C163.736 32.9671 164.269 45.2039 168 59.2763" stroke="#37B85B" stroke-width="3"/>
<path d="M216.023 15.2236C211.759 32.9671 212.292 45.2039 216.023 59.2763" stroke="#37B85B" stroke-width="3"/>
<circle cx="37.5" cy="38" r="35.25" fill="url(#paint0_radial_621_25)" stroke="#37B85B" stroke-width="4.5"/>
<path d="M22.0104 15.5C18.9457 15.5 15.8773 17.7985 15.8773 22.3954L22.0104 34.654L28.1397 22.3954C28.1397 17.7985 25.075 15.5 22.0104 15.5ZM49.0463 19.235C48.3855 19.2628 47.7438 19.3883 47.2075 19.5032L47.5714 21.1887C48.1077 21.069 48.6632 20.9934 49.1325 20.9589L49.0463 19.235ZM22.0104 19.3308C23.7055 19.3308 25.075 20.7032 25.075 22.3954C25.075 24.0906 23.7055 25.4601 22.0104 25.4601C20.3181 25.4601 18.9457 24.0906 18.9457 22.3954C18.9457 20.7032 20.3181 19.3308 22.0104 19.3308ZM50.9521 19.35L50.6648 21.0451C51.1341 21.1437 51.6033 21.2673 52.0151 21.5144L52.8483 20.0012C52.2641 19.6899 51.6129 19.4103 50.9521 19.35ZM45.4453 19.9916C44.8611 20.2196 44.2769 20.4235 43.7789 20.6237L44.4589 22.2039C44.9856 21.9798 45.5411 21.7844 46.0104 21.6197L45.4453 19.9916ZM54.419 21.2749L53.1069 22.3954C53.4517 22.79 53.7199 23.2765 53.9305 23.6692L55.4724 22.8935C55.1468 22.2662 54.8595 21.7911 54.419 21.2749ZM42.1796 21.3611C41.5954 21.659 41.1165 21.9243 40.5994 22.1848L41.4421 23.6979C41.9401 23.4106 42.486 23.1329 42.9266 22.9126L42.1796 21.3611ZM39.0862 23.0754C38.5786 23.3723 38.0806 23.6692 37.5922 23.9948L38.5307 25.4314C39 25.1249 39.4884 24.8376 39.9673 24.5503L39.0862 23.0754ZM56.0662 24.7897C55.5012 24.8855 54.9266 24.9525 54.3615 25.0195C54.3998 25.4984 54.3711 26.0156 54.2753 26.4178L55.9513 26.8104C56.0471 26.1209 56.1333 25.4122 56.0662 24.7897ZM36.1365 24.9525C35.6576 25.2781 35.1883 25.6133 34.7095 25.9389L35.7055 27.3468C36.1652 27.0116 36.6345 26.6955 37.1037 26.3699L36.1365 24.9525ZM33.3017 26.9733C32.8228 27.318 32.3248 27.7011 31.913 28.0172L32.9569 29.3867C33.4836 29.0036 33.8476 28.7163 34.3264 28.3619L33.3017 26.9733ZM53.7007 27.7394C53.4134 28.18 53.0782 28.6205 52.743 28.9557L53.9976 30.1528C54.4094 29.6644 54.8499 29.1664 55.1564 28.6684L53.7007 27.7394ZM30.5435 29.0898C30.0742 29.4537 29.6049 29.8272 29.1931 30.172L30.2849 31.5032C30.735 31.1297 31.1947 30.7466 31.6161 30.4401L30.5435 29.0898ZM51.5555 30.0571C51.1149 30.4114 50.6552 30.7562 50.2338 31.0435L51.2203 32.4609C51.7278 32.1161 52.2258 31.7426 52.6568 31.3978L51.5555 30.0571ZM27.8619 31.2925C27.4118 31.6564 26.9808 32.0395 26.5403 32.413L27.6608 33.725C28.0918 33.3515 28.5227 32.978 28.9633 32.6141L27.8619 31.2925ZM48.826 31.9629C48.3376 32.2502 47.83 32.5471 47.3703 32.7961L48.1939 34.3188C48.7111 34.0028 49.2953 33.725 49.7262 33.4377L48.826 31.9629ZM25.2282 33.5527C24.7973 33.9357 24.3759 34.3188 23.9449 34.7115L25.1037 35.9948C25.5251 35.6117 25.9561 35.2286 26.3775 34.8456L25.2282 33.5527ZM45.8667 33.591C45.3591 33.84 44.8515 34.0986 44.344 34.3476L45.0814 35.899C45.6752 35.6117 46.1157 35.3723 46.652 35.1233L45.8667 33.591ZM42.8021 35.0658C42.2753 35.3053 41.7677 35.5351 41.2314 35.7554L41.9306 37.3356C42.4573 37.1057 42.984 36.8663 43.5108 36.6269L42.8021 35.0658ZM22.6808 35.899C22.1923 36.33 21.8524 36.6652 21.407 37.0962L22.6233 38.3412C23.0734 37.9102 23.4373 37.5367 23.8587 37.1728L22.6808 35.899ZM39.6608 36.4545C39.1341 36.6748 38.6073 36.9046 38.0806 37.1249L38.751 38.7242C39.2873 38.504 39.814 38.2741 40.3408 38.0443L39.6608 36.4545ZM36.4908 37.7953C35.9641 38.0251 35.4373 38.255 34.901 38.4657L35.5714 40.065C36.0982 39.8448 36.6345 39.6149 37.1612 39.3946L36.4908 37.7953ZM54.1891 38.4848C51.1245 38.4848 48.0598 40.7833 48.0598 45.3803L54.1891 57.6388L60.3184 45.3803C60.3184 40.7833 57.2538 38.4848 54.1891 38.4848ZM33.3112 39.1361C32.7654 39.3851 32.1907 39.6149 31.7215 39.816L32.4014 41.4058C32.9665 41.1664 33.5028 40.9365 33.9816 40.7258L33.3112 39.1361ZM30.1317 40.496C29.6145 40.7354 29.0112 41.0036 28.5515 41.2143L29.2602 42.7849C29.8252 42.5359 30.3232 42.2869 30.8212 42.0762L30.1317 40.496ZM26.9713 41.9325C26.4349 42.1911 25.8795 42.4593 25.4006 42.6987L26.1764 44.2406C26.6935 43.9725 27.2298 43.7234 27.6991 43.4936L26.9713 41.9325ZM54.1891 42.3156C55.8843 42.3156 57.2538 43.6851 57.2538 45.3803C57.2538 47.0754 55.8843 48.4449 54.1891 48.4449C52.494 48.4449 51.1245 47.0754 51.1245 45.3803C51.1245 43.6851 52.494 42.3156 54.1891 42.3156ZM23.8492 43.4936C23.3416 43.7713 22.834 44.0586 22.3168 44.3555L23.1788 45.8495C23.6672 45.5622 24.1652 45.2941 24.6632 45.0259L23.8492 43.4936ZM20.8132 45.2845C20.276 45.591 19.7569 46.0028 19.3097 46.2997L20.3535 47.6788C20.8295 47.334 21.3419 46.9796 21.7518 46.7306L20.8132 45.2845ZM17.9497 47.4489C17.49 47.8703 17.037 48.3587 16.6856 48.7705L17.9976 49.891C18.3663 49.4409 18.6871 49.1057 19.1181 48.7226L17.9497 47.4489ZM38.8084 47.5734L38.9617 49.2877C39.4597 49.2015 39.9577 49.259 40.4557 49.3356L40.7526 47.6404C40.1205 47.5447 39.4501 47.4776 38.8084 47.5734ZM35.2458 48.5311L35.897 50.1305C36.395 49.9102 36.9122 49.7378 37.4389 49.575C37.257 49.0291 37.1229 48.4736 36.9792 47.9182C36.3759 48.0906 35.7725 48.3204 35.2458 48.5311ZM42.668 48.4449L41.6911 49.8623C42.0934 50.1592 42.486 50.4752 42.8021 50.8679L44.1045 49.7378C43.6161 49.2398 43.2426 48.7705 42.668 48.4449ZM33.6177 49.3068C33.091 49.575 32.5834 49.8815 32.0758 50.1784L32.9473 51.6628C33.4453 51.3946 33.9338 51.0786 34.4222 50.82L33.6177 49.3068ZM15.633 50.3603C15.3438 50.9828 15.1092 51.6532 15 52.247L16.6951 52.5439C16.7986 51.998 16.947 51.6053 17.1644 51.1361C16.6386 50.9062 16.1368 50.6285 15.633 50.3603ZM30.5818 51.1073C30.0934 51.4234 29.6145 51.7394 29.1357 52.065L30.0934 53.5016C30.5722 53.1855 31.0415 52.8599 31.5203 52.5439L30.5818 51.1073ZM45.2059 51.2222L43.7598 52.1608C44.0662 52.6205 44.3631 53.0993 44.6408 53.5878L46.1349 52.7258C45.7997 52.1895 45.5602 51.7107 45.2059 51.2222ZM27.7087 53.0419C27.2298 53.3579 26.751 53.6644 26.2817 53.9996L27.2394 55.4361C27.6991 55.1009 28.1875 54.7849 28.676 54.4593L27.7087 53.0419ZM16.7143 53.9517C16.1598 54.0666 15.6005 54.1624 15.0431 54.2677C15.1437 54.9381 15.4128 55.5894 15.656 56.1065L17.2123 55.3595C17.0045 54.8807 16.8072 54.3827 16.7143 53.9517ZM46.9872 54.2198L45.4932 55.0818C45.7901 55.5989 46.1349 56.1544 46.4126 56.5949L47.8587 55.666C47.5331 55.1584 47.2554 54.6795 46.9872 54.2198ZM24.8643 54.9381C24.3855 55.235 23.9162 55.5223 23.4182 55.8001L24.2705 57.3036C24.7781 57.0068 25.2857 56.7099 25.7741 56.3938L24.8643 54.9381ZM18.0359 56.4992L16.8579 57.7633C17.3904 58.2709 18.0474 58.6061 18.7638 58.7594L19.1468 57.0834C18.7216 56.9972 18.3242 56.7865 18.0359 56.4992ZM21.9625 56.5279C21.4827 56.7482 20.9847 56.9206 20.4685 57.0259L20.8611 58.7115C21.476 58.587 22.0544 58.3571 22.6329 58.1177L21.9625 56.5279ZM48.8068 56.9876L47.4756 58.0698C47.8875 58.5774 48.395 59.0658 48.8356 59.4106L49.8986 58.0507C49.4772 57.725 49.1133 57.3324 48.8068 56.9876ZM51.1149 58.6636L50.6839 60.3396C51.4405 60.4928 52.0056 60.5407 52.7143 60.4641L52.5036 58.7498C52.0343 58.8264 51.5746 58.7785 51.1149 58.6636Z" fill="white"/>
<defs>
<radialGradient id="paint0_radial_621_25" cx="0" cy="0" r="1" gradientUnits="userSpaceOnUse" gradientTransform="translate(37.5 38) rotate(90) scale(37.5)">
<stop offset="0.03125" stop-color="#67FF88"/>
<stop offset="0.817708"/>
</radialGradient>
</defs>
</svg>
