<svg width="132" height="132" viewBox="0 0 132 132" fill="none" xmlns="http://www.w3.org/2000/svg">
<g filter="url(#filter0_f_599_228)">
<rect x="6" y="6" width="120" height="120" rx="30" fill="#160B2D"/>
<rect x="4" y="4" width="124" height="124" rx="32" stroke="white" stroke-width="4"/>
</g>
<g filter="url(#filter1_f_599_228)">
<path d="M68.9385 113.947C65.7641 75.9555 134.38 28.5202 99.5046 35.0226C57.9725 42.7659 112.574 15.6522 67.277 30.7143C8.04149 50.411 33.4099 78.1678 75.6788 65.6898C105.731 56.8182 153.298 83.2427 44.553 90.3694C21.0827 91.9075 16.7386 67.5972 19.398 55.8372" stroke="white" stroke-opacity="0.6" stroke-width="1.5" stroke-linejoin="round"/>
</g>
<path d="M75.6788 65.6897L75.9442 66.5888L75.6788 65.6897ZM44.553 90.3693L44.4916 89.4338L44.553 90.3693ZM67.5728 31.6039C68.0641 31.4405 68.33 30.9098 68.1666 30.4184C68.0032 29.9271 67.4725 29.6613 66.9812 29.8246L67.5728 31.6039ZM18.0389 58.1808C17.9734 58.6944 18.3366 59.1639 18.8502 59.2294C19.3638 59.295 19.8333 58.9318 19.8989 58.4182L18.0389 58.1808ZM19.6527 63.2749C19.6424 62.7573 19.2144 62.346 18.6968 62.3563C18.1791 62.3666 17.7678 62.7945 17.7781 63.3122L19.6527 63.2749ZM18.217 68.4188C18.2951 68.9307 18.7734 69.2823 19.2852 69.2041C19.7971 69.126 20.1487 68.6478 20.0706 68.1359L18.217 68.4188ZM21.1332 72.8898C20.9846 72.3938 20.462 72.1122 19.966 72.2608C19.4701 72.4095 19.1885 72.932 19.3371 73.428L21.1332 72.8898ZM21.2012 78.232C21.4282 78.6973 21.9895 78.8905 22.4548 78.6634C22.9202 78.4364 23.1133 77.8751 22.8863 77.4098L21.2012 78.232ZM25.3987 81.5148C25.0849 81.1029 24.4966 81.0234 24.0848 81.3372C23.6729 81.651 23.5934 82.2393 23.9072 82.6511L25.3987 81.5148ZM27.5161 86.4097C27.9165 86.738 28.5072 86.6796 28.8355 86.2792C29.1638 85.8788 29.1054 85.2881 28.705 84.9598L27.5161 86.4097ZM32.7296 87.4947C32.2605 87.2754 31.7025 87.4779 31.4832 87.9469C31.2639 88.416 31.4664 88.9739 31.9354 89.1932L32.7296 87.4947ZM36.8829 90.8256C37.3898 90.9311 37.8863 90.6058 37.9918 90.0989C38.0974 89.592 37.7721 89.0955 37.2652 88.99L36.8829 90.8256ZM42.0572 89.4987C41.5395 89.4915 41.1139 89.9053 41.1067 90.423C41.0994 90.9407 41.5133 91.3663 42.031 91.3735L42.0572 89.4987ZM47.2531 91.126C47.7696 91.0898 48.159 90.6418 48.1228 90.1253C48.0866 89.6088 47.6386 89.2194 47.1221 89.2556L47.2531 91.126ZM52.1971 88.8767C51.6809 88.9177 51.2958 89.3693 51.3368 89.8855C51.3778 90.4016 51.8294 90.7868 52.3456 90.7458L52.1971 88.8767ZM57.4671 90.3122C57.9828 90.2657 58.3632 89.81 58.3168 89.2944C58.2703 88.7787 57.8146 88.3983 57.299 88.4447L57.4671 90.3122ZM62.3124 87.9643C61.7973 88.0167 61.4223 88.4768 61.4748 88.9919C61.5273 89.507 61.9874 89.8821 62.5025 89.8296L62.3124 87.9643ZM67.6619 89.2692C68.1762 89.2096 68.5449 88.7444 68.4854 88.2301C68.4259 87.7158 67.9607 87.3471 67.4463 87.4066L67.6619 89.2692ZM72.4615 86.7876C71.9481 86.8552 71.5867 87.326 71.6542 87.8394C71.7217 88.3527 72.1926 88.7142 72.706 88.6466L72.4615 86.7876ZM77.759 87.936C78.2711 87.859 78.6237 87.3816 78.5468 86.8696C78.4698 86.3576 77.9924 86.0049 77.4803 86.0818L77.759 87.936ZM82.5484 85.2634C82.0383 85.3519 81.6965 85.8372 81.785 86.3474C81.8735 86.8575 82.3588 87.1993 82.869 87.1108L82.5484 85.2634ZM87.9227 86.1638C88.4302 86.061 88.7582 85.5663 88.6555 85.0589C88.5527 84.5514 88.058 84.2233 87.5506 84.3261L87.9227 86.1638ZM92.5014 83.234C91.998 83.3551 91.6882 83.8614 91.8093 84.3648C91.9305 84.8682 92.4368 85.1781 92.9402 85.0569L92.5014 83.234ZM97.9186 83.7331C98.4153 83.5867 98.6992 83.0654 98.5528 82.5688C98.4064 82.0722 97.8852 81.7882 97.3885 81.9346L97.9186 83.7331ZM102.134 80.3525C101.65 80.5365 101.407 81.0779 101.591 81.5619C101.775 82.0459 102.316 82.2891 102.8 82.1052L102.134 80.3525ZM107.588 79.9351C108.041 79.6848 108.206 79.1145 107.955 78.6612C107.705 78.208 107.135 78.0434 106.681 78.2937L107.588 79.9351ZM110.425 75.4446C110.094 75.8429 110.149 76.4339 110.547 76.7648C110.945 77.0956 111.536 77.041 111.867 76.6427L110.425 75.4446ZM112.701 70.902C112.459 70.4442 111.892 70.269 111.434 70.5108C110.976 70.7525 110.801 71.3197 111.043 71.7775L112.701 70.902ZM107.672 68.768C108.123 69.0222 108.695 68.8627 108.949 68.4116C109.203 67.9605 109.043 67.3888 108.592 67.1346L107.672 68.768ZM103.705 65.0705C103.212 64.9135 102.685 65.1863 102.528 65.6796C102.371 66.173 102.643 66.7003 103.137 66.8573L103.705 65.0705ZM98.2911 65.6618C98.8003 65.7558 99.2892 65.4193 99.3832 64.9101C99.4772 64.401 99.1407 63.912 98.6315 63.818L98.2911 65.6618ZM93.4698 63.1367C92.9538 63.0942 92.5011 63.4782 92.4586 63.9942C92.4162 64.5102 92.8002 64.9629 93.3162 65.0054L93.4698 63.1367ZM88.3023 64.8307C88.8201 64.8243 89.2346 64.3994 89.2282 63.8817C89.2219 63.364 88.797 62.9494 88.2793 62.9558L88.3023 64.8307ZM83.0845 63.273C82.5699 63.3304 82.1993 63.794 82.2567 64.3086C82.3141 64.8232 82.7778 65.1938 83.2924 65.1364L83.0845 63.273ZM78.3567 65.9612C78.8617 65.8466 79.1781 65.3444 79.0636 64.8395C78.949 64.3345 78.4468 64.0181 77.9419 64.1326L78.3567 65.9612ZM72.8911 65.4927C72.3902 65.6237 72.0903 66.1359 72.2213 66.6369C72.3523 67.1378 72.8645 67.4377 73.3655 67.3067L72.8911 65.4927ZM68.1952 68.4806C68.7037 68.3829 69.0367 67.8915 68.939 67.3831C68.8413 66.8746 68.3499 66.5416 67.8414 66.6393L68.1952 68.4806ZM62.6955 67.4377C62.1813 67.4979 61.8132 67.9636 61.8735 68.4779C61.9337 68.9921 62.3995 69.3602 62.9137 69.2999L62.6955 67.4377ZM57.61 69.706C58.1275 69.6883 58.5326 69.2544 58.5148 68.7369C58.497 68.2195 58.0632 67.8144 57.5457 67.8322L57.61 69.706ZM52.3654 67.7659C51.8487 67.7333 51.4034 68.1258 51.3708 68.6425C51.3382 69.1593 51.7307 69.6046 52.2474 69.6372L52.3654 67.7659ZM46.9179 68.9902C47.4269 69.0847 47.9162 68.7487 48.0107 68.2396C48.1053 67.7305 47.7692 67.2412 47.2601 67.1467L46.9179 68.9902ZM42.331 65.8347C41.844 65.6588 41.3066 65.911 41.1307 66.3979C40.9549 66.8849 41.207 67.4223 41.694 67.5982L42.331 65.8347ZM36.797 65.1648C37.2258 65.4551 37.8087 65.3429 38.099 64.9142C38.3893 64.4855 38.2771 63.9026 37.8483 63.6123L36.797 65.1648ZM34.451 60.1933C34.1826 59.7506 33.606 59.6093 33.1633 59.8777C32.7206 60.1462 32.5792 60.7227 32.8477 61.1654L34.451 60.1933ZM31.483 55.5926C31.4467 56.1091 31.8359 56.5573 32.3524 56.5936C32.8689 56.63 33.317 56.2407 33.3534 55.7242L31.483 55.5926ZM34.8677 51.1993C35.1285 50.7521 34.9773 50.178 34.53 49.9172C34.0828 49.6564 33.5087 49.8076 33.2479 50.2549L34.8677 51.1993ZM36.633 45.9387C36.2693 46.3072 36.2731 46.9008 36.6416 47.2645C37.0101 47.6283 37.6037 47.6244 37.9674 47.2559L36.633 45.9387ZM41.8251 43.926C42.2392 43.6152 42.3229 43.0275 42.0121 42.6134C41.7013 42.1993 41.1137 42.1156 40.6996 42.4264L41.8251 43.926ZM45.1665 39.4276C44.7236 39.6957 44.5819 40.2722 44.8501 40.7151C45.1183 41.158 45.6947 41.2997 46.1376 41.0315L45.1665 39.4276ZM50.6451 38.5271C51.106 38.2911 51.2883 37.7262 51.0523 37.2653C50.8163 36.8045 50.2514 36.6222 49.7905 36.8582L50.6451 38.5271ZM54.5775 34.5773C54.1044 34.7876 53.8913 35.3416 54.1015 35.8147C54.3118 36.2879 54.8658 36.501 55.339 36.2907L54.5775 34.5773ZM60.1518 34.2822C60.6337 34.0931 60.8711 33.549 60.6819 33.067C60.4928 32.585 59.9487 32.3477 59.4667 32.5368L60.1518 34.2822ZM64.426 30.6973C63.9374 30.8688 63.6803 31.4038 63.8517 31.8924C64.0232 32.3809 64.5582 32.638 65.0467 32.4666L64.426 30.6973ZM18.4836 55.6304C18.3023 56.4324 18.1531 57.2863 18.0389 58.1808L19.8989 58.4182C20.0061 57.5778 20.1453 56.783 20.3124 56.044L18.4836 55.6304ZM17.7781 63.3122C17.811 64.9656 17.9522 66.6837 18.217 68.4188L20.0706 68.1359C19.8185 66.4842 19.684 64.8483 19.6527 63.2749L17.7781 63.3122ZM19.3371 73.428C19.8278 75.0654 20.4443 76.6808 21.2012 78.232L22.8863 77.4098C22.1782 75.9584 21.5974 74.439 21.1332 72.8898L19.3371 73.428ZM23.9072 82.6511C24.9523 84.0228 26.1507 85.2901 27.5161 86.4097L28.705 84.9598C27.4606 83.9394 26.3622 82.7794 25.3987 81.5148L23.9072 82.6511ZM31.9354 89.1932C33.4462 89.8996 35.093 90.4528 36.8829 90.8256L37.2652 88.99C35.6142 88.6461 34.1059 88.1382 32.7296 87.4947L31.9354 89.1932ZM42.031 91.3735C42.8675 91.3852 43.7285 91.3629 44.6143 91.3048L44.4916 89.4338C43.6537 89.4888 42.8424 89.5097 42.0572 89.4987L42.031 91.3735ZM44.6143 91.3048C45.5043 91.2465 46.3838 91.1869 47.2531 91.126L47.1221 89.2556C46.2557 89.3163 45.3789 89.3757 44.4916 89.4338L44.6143 91.3048ZM52.3456 90.7458C54.0978 90.6065 55.8047 90.4619 57.4671 90.3122L57.299 88.4447C55.6433 88.5939 53.9429 88.7379 52.1971 88.8767L52.3456 90.7458ZM62.5025 89.8296C64.2773 89.6488 65.9967 89.4619 67.6619 89.2692L67.4463 87.4066C65.79 87.5983 64.0791 87.7843 62.3124 87.9643L62.5025 89.8296ZM72.706 88.6466C74.4567 88.4164 76.1405 88.1793 77.759 87.936L77.4803 86.0818C75.8737 86.3233 74.2014 86.5588 72.4615 86.7876L72.706 88.6466ZM82.869 87.1108C84.6434 86.8029 86.3269 86.4869 87.9227 86.1638L87.5506 84.3261C85.9731 84.6455 84.3068 84.9583 82.5484 85.2634L82.869 87.1108ZM92.9402 85.0569C94.734 84.6252 96.3914 84.1833 97.9186 83.7331L97.3885 81.9346C95.8947 82.3749 94.268 82.8088 92.5014 83.234L92.9402 85.0569ZM102.8 82.1052C104.664 81.397 106.253 80.6719 107.588 79.9351L106.681 78.2937C105.44 78.979 103.934 79.6685 102.134 80.3525L102.8 82.1052ZM111.867 76.6427C112.631 75.7237 113.1 74.7579 113.238 73.7599C113.377 72.7548 113.17 71.7904 112.701 70.902L111.043 71.7775C111.351 72.3616 111.46 72.9324 111.381 73.5028C111.301 74.0802 111.018 74.7302 110.425 75.4446L111.867 76.6427ZM108.592 67.1346C107.197 66.3482 105.542 65.6548 103.705 65.0705L103.137 66.8573C104.881 67.4121 106.413 68.0583 107.672 68.768L108.592 67.1346ZM98.6315 63.818C96.9827 63.5135 95.251 63.283 93.4698 63.1367L93.3162 65.0054C95.0368 65.1468 96.706 65.3691 98.2911 65.6618L98.6315 63.818ZM88.2793 62.9558C86.5568 62.977 84.8163 63.0798 83.0845 63.273L83.2924 65.1364C84.9598 64.9504 86.6386 64.8511 88.3023 64.8307L88.2793 62.9558ZM77.9419 64.1326C77.0893 64.3261 76.2452 64.545 75.4134 64.7906L75.9442 66.5888C76.7361 66.3551 77.5413 66.1462 78.3567 65.9612L77.9419 64.1326ZM75.4134 64.7906C74.5654 65.0409 73.7245 65.2748 72.8911 65.4927L73.3655 67.3067C74.2178 67.0838 75.0776 66.8447 75.9442 66.5888L75.4134 64.7906ZM67.8414 66.6393C66.0814 66.9775 64.3641 67.2421 62.6955 67.4377L62.9137 69.2999C64.6288 69.099 66.3913 68.8273 68.1952 68.4806L67.8414 66.6393ZM57.5457 67.8322C55.7412 67.8941 54.0114 67.8697 52.3654 67.7659L52.2474 69.6372C53.957 69.745 55.7477 69.77 57.61 69.706L57.5457 67.8322ZM47.2601 67.1467C45.464 66.8133 43.8157 66.3709 42.331 65.8347L41.694 67.5982C43.2848 68.1727 45.0327 68.6402 46.9179 68.9902L47.2601 67.1467ZM37.8483 63.6123C36.3418 62.5921 35.2051 61.4371 34.451 60.1933L32.8477 61.1654C33.768 62.6834 35.1128 64.0244 36.797 65.1648L37.8483 63.6123ZM33.3534 55.7242C33.4519 54.3243 33.9297 52.8079 34.8677 51.1993L33.2479 50.2549C32.1915 52.0666 31.6051 53.8583 31.483 55.5926L33.3534 55.7242ZM37.9674 47.2559C39.0463 46.163 40.3275 45.05 41.8251 43.926L40.6996 42.4264C39.1383 43.5982 37.7854 44.7713 36.633 45.9387L37.9674 47.2559ZM46.1376 41.0315C47.5171 40.1963 49.0179 39.3603 50.6451 38.5271L49.7905 36.8582C48.127 37.71 46.587 38.5675 45.1665 39.4276L46.1376 41.0315ZM55.339 36.2907C56.8559 35.6166 58.4593 34.9465 60.1518 34.2822L59.4667 32.5368C57.75 33.2106 56.1211 33.8913 54.5775 34.5773L55.339 36.2907ZM65.0467 32.4666C65.8708 32.1775 66.7127 31.8899 67.5728 31.6039L66.9812 29.8246C66.1116 30.1138 65.2599 30.4048 64.426 30.6973L65.0467 32.4666Z" fill="#67FF88"/>
<path d="M23.4422 46.2978L20.3671 51.4547C19.9845 52.0963 19.059 52.1071 18.6615 51.4746L17.5195 49.6574L15.6189 46.2978C14.96 45.1774 14.4212 44.3973 14.1061 43.466C13.8929 42.3932 14.0026 41.2814 14.4212 40.2709C14.8399 39.2605 15.5488 38.3969 16.4582 37.7893C17.3677 37.1817 18.4368 36.8574 19.5306 36.8574C20.6243 36.8574 21.6935 37.1817 22.6029 37.7893C23.5124 38.3969 24.2212 39.2605 24.6399 40.2709C25.0586 41.2814 25.1682 42.3932 24.9551 43.466C24.6399 44.3973 24.24 44.8574 23.4422 46.2978ZM19.5306 44.3973C20.0639 44.3973 20.5755 44.1854 20.9526 43.8082C21.3298 43.4311 21.5417 42.9195 21.5417 42.3862C21.5417 41.8528 21.3298 41.3412 20.9526 40.9641C20.5755 40.5869 20.0639 40.375 19.5306 40.375C18.9972 40.375 18.4857 40.5869 18.1085 40.9641C17.7313 41.3412 17.5195 41.8528 17.5195 42.3862C17.5195 42.9195 17.7313 43.4311 18.1085 43.8082C18.4857 44.1854 18.9972 44.3973 19.5306 44.3973Z" fill="#37B85B"/>
<circle cx="44.2857" cy="75.1426" r="4" fill="#914EE6" fill-opacity="0.6"/>
<circle cx="48.8571" cy="21.4284" r="2.85714" fill="#E68B4E" fill-opacity="0.6"/>
<circle cx="42.5715" cy="55.143" r="5.71429" fill="#D9D9D9"/>
<g filter="url(#filter2_f_599_228)">
<circle cx="69.4286" cy="46.5717" r="9.71428" fill="#FFBAB2" fill-opacity="0.9"/>
</g>
<circle cx="69.4286" cy="46.5712" r="7.42857" fill="#FFADAD"/>
<circle cx="100.857" cy="19.714" r="4.57143" fill="#FFCC2F" fill-opacity="0.6"/>
<g filter="url(#filter3_f_599_228)">
<ellipse cx="57.445" cy="33.8747" rx="6.98413" ry="12.5714" transform="rotate(-113.851 57.445 33.8747)" fill="white"/>
</g>
<path d="M47.3774 38.2194C47.3722 38.2509 47.376 38.2832 47.3884 38.3125C47.4009 38.3418 47.4214 38.367 47.4477 38.3851C49.1931 39.6022 54.2972 39.6458 57.6438 38.1671C58.7493 37.6837 60.006 37.7013 61.2097 37.7851C61.3329 37.7937 61.4558 37.7958 61.578 37.7906C63.6723 37.6953 64.9884 35.8417 65.4755 35.0137C65.5025 34.9685 65.5186 34.9177 65.5226 34.8652C65.5265 34.8127 65.5183 34.7601 65.4984 34.7113C65.4786 34.6626 65.4477 34.6191 65.4082 34.5843C65.3688 34.5495 65.3217 34.5243 65.2709 34.5108L62.948 33.8946C62.5875 33.799 62.391 33.4131 62.4862 33.0524C62.5296 32.8973 62.5172 32.7319 62.4514 32.5849L61.768 31.0442C61.7035 30.8966 61.5895 30.7762 61.4456 30.7037C61.1166 30.5322 60.9642 30.1294 61.1351 29.8L62.2416 27.667C62.2658 27.6202 62.2787 27.5685 62.2795 27.5159C62.2803 27.4633 62.2689 27.4113 62.2462 27.3638C62.2235 27.3163 62.1902 27.2748 62.1487 27.2424C62.1073 27.21 62.0589 27.1877 62.0073 27.1771C61.0701 26.9773 58.8098 26.7018 57.3344 28.1885C57.2508 28.273 57.1718 28.3624 57.0971 28.4561C56.3438 29.4015 55.5079 30.3434 54.4037 30.8353C51.051 32.3075 47.6962 36.0163 47.3774 38.2194ZM55.7073 34.6431C55.8429 34.9496 55.8846 35.2893 55.8271 35.6194C55.7695 35.9496 55.6154 36.2552 55.3842 36.4977C55.1529 36.7402 54.8549 36.9087 54.5279 36.9818C54.2009 37.0549 53.8595 37.0294 53.547 36.9085C53.2345 36.7876 52.9649 36.5767 52.7722 36.3026C52.5796 36.0284 52.4725 35.7033 52.4647 35.3683C52.4568 35.0333 52.5485 34.7035 52.7281 34.4206C52.9078 34.1377 53.1672 33.9145 53.4738 33.7791C53.6771 33.689 53.8963 33.6399 54.1186 33.6345C54.341 33.6292 54.5622 33.6678 54.7697 33.748C54.9771 33.8283 55.1667 33.9487 55.3276 34.1022C55.4885 34.2558 55.6175 34.4396 55.7073 34.6431Z" fill="#BE2819"/>
<path d="M62.1549 30.2688C62.4052 30.1579 62.7217 30.1994 63.0933 30.2738C63.9272 30.4432 64.3565 31.3865 63.91 32.1231C63.7404 32.4022 63.4191 32.7612 63.2822 32.8217C63.2524 32.8345 63.2274 32.8564 63.2108 32.8842C63.1942 32.912 63.1867 32.9444 63.1895 32.9767C63.1923 33.009 63.2052 33.0395 63.2264 33.0641C63.2476 33.0886 63.2759 33.1059 63.3075 33.1134C63.7657 33.2291 64.2494 33.1882 64.6817 32.9972C66.7091 32.0999 64.9902 28.2151 62.9629 29.1124C62.5298 29.303 62.1735 29.6338 61.9513 30.0516C61.8859 30.1844 62.0218 30.3312 62.1549 30.2688Z" fill="#BE2819"/>
<defs>
<filter id="filter0_f_599_228" x="0" y="0" width="132" height="132" filterUnits="userSpaceOnUse" color-interpolation-filters="sRGB">
<feFlood flood-opacity="0" result="BackgroundImageFix"/>
<feBlend mode="normal" in="SourceGraphic" in2="BackgroundImageFix" result="shape"/>
<feGaussianBlur stdDeviation="1" result="effect1_foregroundBlur_599_228"/>
</filter>
<filter id="filter1_f_599_228" x="13.9581" y="21.3252" width="103.136" height="96.6846" filterUnits="userSpaceOnUse" color-interpolation-filters="sRGB">
<feFlood flood-opacity="0" result="BackgroundImageFix"/>
<feBlend mode="normal" in="SourceGraphic" in2="BackgroundImageFix" result="shape"/>
<feGaussianBlur stdDeviation="2" result="effect1_foregroundBlur_599_228"/>
</filter>
<filter id="filter2_f_599_228" x="55.7143" y="32.8574" width="27.4286" height="27.4287" filterUnits="userSpaceOnUse" color-interpolation-filters="sRGB">
<feFlood flood-opacity="0" result="BackgroundImageFix"/>
<feBlend mode="normal" in="SourceGraphic" in2="BackgroundImageFix" result="shape"/>
<feGaussianBlur stdDeviation="2" result="effect1_foregroundBlur_599_228"/>
</filter>
<filter id="filter3_f_599_228" x="44.6027" y="24.7109" width="25.6848" height="18.3271" filterUnits="userSpaceOnUse" color-interpolation-filters="sRGB">
<feFlood flood-opacity="0" result="BackgroundImageFix"/>
<feBlend mode="normal" in="SourceGraphic" in2="BackgroundImageFix" result="shape"/>
<feGaussianBlur stdDeviation="0.5" result="effect1_foregroundBlur_599_228"/>
</filter>
</defs>
</svg>
